<?xml version="1.0" encoding="UTF-8"?>
<svg id="Laag_2" data-name="Laag 2" xmlns="http://www.w3.org/2000/svg" viewBox="0 0 2226.38 342.68">
  <defs>
    <style>
      .cls-1 {
        fill: #fff;
        stroke-width: 0px;
      }
    </style>
  </defs>
  <g id="Laag_1-2" data-name="Laag 1">
    <g>
      <path class="cls-1" d="m2129.05,196.26l1.81-1.4c8.67-6.47,17.63-12.62,25.99-19.49,10.54-8.71,19.12-19.15,24.88-31.73,5.36-11.73,6-24.07,5.61-36.63-.06-2.02-1.51-1.6-2.69-1.6h-39.5c-.79,0-1.6.09-2.66.16,0,1.13.03,2.02,0,2.92-.19,4.29.04,8.65-.7,12.82-1.32,7.12-5.82,12.66-11.19,17.11-8.06,6.71-16.42,13.09-24.97,19.15-13.21,9.4-26.67,18.4-40.02,27.58-.39.27-.82.45-1.69.89V2.97c0-.99.06-2,.09-2.97h-45.21c.03,1.22.13,2.46.13,3.7,0,107.91,0,215.81-.06,323.72,0,2.52.62,3.24,3.15,3.22,12.93-.12,25.83-.06,38.75-.06q3.19,0,3.19-3.32v-58.06c0-6.06.82-12.02,3.12-17.69,5.03-12.36,14.23-21.3,24.53-29.28.09-.07.3,0,.59,0,.46.59.98,1.23,1.47,1.9,25.11,34.48,50.24,68.94,75.3,103.45,1,1.6,2.79,2.52,4.68,2.4,16.56-.09,33.11-.06,49.68-.06h3.03l-97.31-133.64m-1497.91,54c-8.27,20.39-22.87,33.92-45.12,37.34-18.11,2.78-35.37.25-50.02-11.98-11.96-9.99-19.01-22.87-21.55-38.19-.8-4.87-.99-9.84-1.48-14.77.24-14.03,2.97-27.33,10.91-39.1,11.19-16.59,26.89-25.35,46.93-26.48,16.79-.98,31.73,3.56,44.47,14.63,10.64,9.25,16.65,21.22,19.19,34.92,2.72,14.8,2.39,29.54-3.32,43.61Zm1.66-111.27c-3.5-3.22-6.35-6.23-9.57-8.77-24.16-19.21-51.73-24.02-80.97-16.5-37.63,9.69-61.39,34.94-73.74,71.11-6.09,17.87-6.86,36.42-4.65,55.11,1.75,14.93,6.01,29.09,13.54,42.12,11.7,20.29,27.95,35.71,49.66,44.97,17.22,7.36,35.21,9.22,53.72,6.83,19.65-2.55,36.5-10.67,50.02-25.28.47-.49,1.04-.89,2.06-1.78v23.35h48.8V115.42h-48.86v23.57s-.01,0-.01,0Zm1096.62,83.7c-.31,13.92-3.12,27.12-10.86,38.89-12.23,18.58-29.66,27.01-51.84,26.98-33.5-.04-54.18-24-58.84-49.5-3.04-16.71-2.32-33.19,5.25-48.62,9.2-18.72,24.39-29.83,45.18-32.79,12.96-1.83,25.59-.46,37.39,5.55,18.38,9.37,28.56,24.74,32.12,44.72.86,4.85,1.07,9.83,1.57,14.75m-3.46-84.2l-.64.27c-1.77-1.81-3.46-3.76-5.33-5.43-22-19.68-47.99-25.77-76.57-21.37-25.59,3.95-46.13,16.96-62.34,36.88-15.08,18.51-22.92,39.88-24.65,63.63-1.26,17.07.12,33.86,5.61,50.11,9.93,29.33,28.74,51.01,57.04,63.94,17.35,7.93,35.71,9.78,54.58,7.39,16.04-2.02,30.52-7.78,42.92-18.26,3.1-2.64,5.97-5.6,9.38-8.8v23.36h48.76V115.36h-48.73v23.12h-.03s0-.01,0-.01ZM404.93,90.03c-15.73,1.83-29.3,7.57-41.92,15.76-18.02,11.71-33.13,26.67-46.46,43.3-15.53,19.34-30.32,39.23-45.28,59-11.81,15.57-23.7,31.01-38.25,44.2-17.78,16.1-37.95,27.06-62.34,29.28-21.58,1.97-41.37-2.89-59.27-15.14-18.14-12.39-31.81-28.99-43.64-47.23-1.1-1.68-2.17-2.46-4.29-2.45-20.04.06-40.07,0-60.1-.04-1.04,0-2.08.09-3.4.15.52,1.23.85,2.15,1.28,3.03,11.01,22.15,24.6,42.93,40.49,61.89,15.53,18.58,33.69,34.09,55.39,45.17,26.78,13.66,55.11,18.24,84.91,14.44,17.32-2.19,34.12-7.42,49.63-15.44,23.3-12.01,42.48-29.09,59.67-48.58,16.95-19.19,31.41-40.27,46.15-61.15,9.38-13.3,18.55-26.76,29.46-38.92,10.06-11.18,21.73-20.04,36.41-24.34,1.68-.47,1.91-1.4,1.9-2.88-.15-15.88-.25-31.73-.36-47.61v-12.42m487.4,25.23h-48.88v3.67c0,39.78.07,79.56-.07,119.32-.03,5.78-.69,11.54-1.96,17.17-3.03,13.27-10.18,23.58-23.26,28.88-8.22,3.32-16.91,3.87-25.62,3.03-12.88-1.28-23.63-6.55-30.96-17.66-5.83-8.83-7.57-18.85-7.6-29.06-.19-40.7-.09-81.38-.09-122.05v-3.16h-48.95v3.44c0,40.36.03,80.68-.03,121.04,0,8.46.64,16.85,2.55,25.08,7.38,31.7,26.54,53.18,57.04,64.31,17.4,6.34,35.44,6.89,53.58,3.96,20.27-3.3,37.63-12.23,51.3-27.76,15.79-17.91,22.86-39.23,23.01-62.78.27-41.6.07-83.19.07-124.8,0-.86-.07-1.74-.12-2.67m155.53,44.11v-44.82h-44.26V24.91h-49.25v89.65h-45.49v44.82h45.49v170.44h49.25v-170.45h44.26Zm422.98-44.82h-44.82v215.66h44.87v-3.73c.3-28.51.4-57.04.99-85.55.27-12.3,2.52-24.46,6.46-36.19,3.73-11.1,9.16-21.24,18.06-29.17,12.17-10.84,26.98-14.87,42.73-16.4,4.25-.4,8.52-.52,12.88-.77v-44.74c-29.37.09-56.83,6-81.19,24.53v-23.66h.01ZM102.31,162.15c20.11,0,36.56-16.33,36.57-36.35,0-20.29-16.43-36.76-36.72-36.81-20.12.08-36.43,16.35-36.56,36.47-.15,20.12,16.04,36.54,36.15,36.69.18,0,.36,0,.54,0h.01Z"/>
      <path class="cls-1" d="m230.09,162.15c20.03.2,36.43-15.88,36.63-35.92,0-.16,0-.32,0-.48.48-20.18-15.49-36.92-35.67-37.4-20.18-.48-36.92,15.49-37.4,35.67-.01.48-.01.96,0,1.45-.2,20.05,15.9,36.46,35.95,36.66.16,0,.32,0,.48,0h.01Zm925.65,125.91c-35.91,0-65.02-29.11-65.02-65.03s29.11-65.03,65.02-65.03,65.02,29.11,65.02,65.03-29.11,65.03-65.02,65.03Zm0-178.11c-62.45,0-113.08,50.63-113.08,113.08s50.63,113.08,113.08,113.08,113.07-50.62,113.07-113.07-50.62-113.07-113.07-113.07h0Zm205.08-85.05h-49.22v89.65h-45.54v44.82h45.52v170.44h49.22v-170.45h44.26v-44.82h-44.26V24.91h.01Zm599.38,230.58c-10.64,19.77-31.21,31.57-55.02,31.57-36.65,0-64.27-27.8-64.27-64.67s27.62-65.08,64.27-65.08c23.88,0,44.44,12.13,53.64,31.66l3.03,5.89,40.71-22.95-2.63-5.45c-16.73-34.78-53.05-56.4-94.77-56.4-64.03,0-112.33,48.28-112.33,112.33s48.28,112.31,112.33,112.31c40.86,0,77.73-21.34,96.24-55.72l3-5.54-40.88-23.72-3.34,5.8v-.03s.02-.01.02-.01Z"/>
    </g>
  </g>
</svg>