<?xml version="1.0" encoding="UTF-8"?>
<svg id="Laag_2" data-name="Laag 2" xmlns="http://www.w3.org/2000/svg" viewBox="0 0 1842.71 399.1">
  <defs>
    <style>
      .cls-1 {
        fill: #f3f150;
      }

      .cls-1, .cls-2, .cls-3 {
        stroke-width: 0px;
      }

      .cls-2 {
        fill: #333;
      }

      .cls-3 {
        fill: #fff;
      }
    </style>
  </defs>
  <g id="Laag_1-2" data-name="Laag 1">
    <g>
      <path class="cls-1" d="m1.84,378.85c-.31-1.95.31-3.9,1.23-5.58,0-.28.31,0,.61-.28.31-.56.31-1.12.31-1.95,0-1.12-.31-2.23-.61-3.35-.61-2.23-.92-4.74-.31-7.25.31-1.39.31-3.07,0-4.46-.31-1.67-.92-3.35-1.84-4.74-.61-.84-.92-1.67-1.23-2.51v-1.67c.61-.84,1.23-1.39,1.84-2.23.31-.28.92.28,1.23-.28.61-1.12-.31-2.23-.31-3.35v-.56c0-1.95-.31-3.63-.61-5.3-.31-.84-.31-2.23.31-2.51.61-.28.61-1.39.31-2.79-.31-.84-.61-1.95-.61-3.07-.31-1.12-.61-2.23-.61-3.63,0-.28.31,0,.61,0s.31-.28.31-.84.31-2.23.92-2.23.61-3.9,1.23-5.02c.92-2.23,1.23-4.46.61-6.69q-.31-3.63.61-5.86c0-.28.31-.56.31-1.12.31-1.39.61-1.67,1.23-1.39h.61c.61-.28.92-.84.31-2.23s-1.23-2.51-2.15-3.63c-.61-.84-.92-1.67-1.23-2.51-.31-1.12-.31-2.23-.31-3.63,0-.28.31-.56.61-.28.31.28.61,1.39.92-.28.31-.84,0-1.67-.61-2.51,0,0,0-.28-.31-.56-.61-1.95-.61-3.07.31-3.9.92-1.39,1.23-2.79.92-4.18,0-1.39,0-2.79-.31-4.18-.31-1.67,0-1.67.31-1.67s.61-.28.61-.56c0-.84-.31-1.67-.31-2.23-.31-.84-.61-1.39-.61-2.23v-1.39c0,.28.31.28.31.56.31.28.92,1.12,1.23,1.12s.61-.56.61-1.12c0-.84-.31-1.95-.61-2.79-1.23-1.12-1.23-3.9-1.54-6.14-.31-2.79-.61-4.18-1.54-4.74s-.31-1.39,0-1.95c.61-1.67.92-3.35.61-5.02,0-1.12-.31-2.79.31-2.79.61-.28.92-1.95.61-3.63-.61-2.23,0-1.67.61-1.95q.61,0,.92-.56c0-1.67,0-3.35-.92-5.02-.61-.56-.92-1.12-1.54-1.95-.31-.56-.31-1.39-.31-1.95.31,0,.31-.28.61,0,.92,1.39,1.54-.84,2.46-1.12,0-.56.31-1.12,0-1.39,0-.84-.31-1.67-.61-2.23-.31-1.39-.92-2.51,0-3.35.61-1.12.31-2.23-.31-3.35-.31-.56-.61-1.39-.92-1.95s-.31-1.39-.31-1.95c.31-.28.61-.56.61-.56.31,0,.61.28.92,0s.61-.56.61-1.12c0-.84,0-1.67-.31-2.51-1.23-1.67-.92-4.46-.61-6.69.31-1.12,0-2.51-.31-3.63,0-.56-.31-1.12-.31-1.67q.31,0,.61.28l.31.56.31-.56c-.31-1.67-.31-4.18-1.23-4.74-.92-.84-1.23-3.07-1.23-5.02s.61-2.79,1.23-2.79c.92-.28,1.23-1.67,1.23-4.18s.31-3.07,1.23-3.07,1.23-.84.61-3.35c-.31-.56-.31-1.12-.61-1.67-.31-.84-.61-1.67-.31-2.51.31-1.67.31-3.07-.31-4.74-.31-.56-.61-1.12-.61-1.95-.31-.56-.31-1.12-.31-1.67,0-.84,0-1.39.31-2.23.31-.56.61-.84.92-1.39s.31-1.12.31-1.67v-1.12c-.31-1.39-.31-2.51,0-3.9,0-1.12.31-2.23.31-3.35,0-.56,0-.84-.31-1.39l-.31-.56c.31-.84.31-2.23.61-2.51l.31-.28c.31-.56.31-1.39.31-1.95,0-1.12-.31-2.23-.31-3.07s.31-1.39.31-2.23v-1.95c0-.84,0-1.95-.31-2.51,0-1.12-.31-1.95-.31-3.07,0-2.23,2.46-5.02,2.15-6.41-.31-.84-.61-1.39-.61-1.95q-.61-1.95.31-3.07c.31-.56.31-1.12.31-1.39,0-.84-.31-1.39-.61-2.23-.61-1.67-1.54-2.79-2.15-4.46-.31-.84,1.84-3.63,1.84-5.02.31-2.23,0-4.18-.31-6.41-.92-1.67-.31-1.39-1.23-3.07,0,0,2.46-4.46,2.15-6.14.31-.28.31-.84.61-1.12s.31-.56.31-.84c.31-1.12,0-2.23-.92-3.07,0,0-3.38-5.86.31-6.97l.92-1.39.61-1.95c.31-1.39.92-3.07,1.84-4.46l.31-.28c.31-.28.92-.28,1.23-.28s.61-.28.92-.28c.61-.28.92-.56,1.54-.56.92-.28,1.84-.28,2.46,0q.31,0,.61.28s2.15.28,4.91,1.12c100.43,24.27,450.23-2.51,684.87-61.92,6.14-1.39,15.97-3.63,17.81-4.18,2.15-.56.61,1.67-1.54,3.35-1.54,1.12-8.6,2.23-9.21,2.51-.31.28-.61.56-.61.84,1.54,3.07,10.75,0,14.43-.56,3.69-.28,3.38,1.12,1.23,2.23-3.38,1.95-3.99,4.46-2.46,5.58.31.28.92.28,1.23.56.31.28.92,1.12.92,1.39-.31.84-.92,1.67-1.54,2.23-1.84,1.39-2.15,3.63-.92,5.3.92,1.12.92,2.23,0,3.35-.92,1.39-11.36,5.02-13.21,5.86-1.23.28-2.46.84-3.69,1.67-.31.28-.61,1.12-.31,1.39,1.54.84,12.28-3.63,13.82-3.07.92.28,13.82-3.63,7.99.28-1.23.84-5.22,4.18-5.22,5.02v.56c-.31,1.39-.31,2.79-1.54,3.9-.92.56-.31,1.95.61,1.95,1.84.56,1.23,1.12.31,2.23-1.84,1.95-7.99,4.18-9.83,6.14-.31.28,0,.56-.31.84.31,0,.92.28.92,0,.92-1.12,2.15-.56,3.38-.84,2.76-1.12,10.13-3.63,11.06-4.46,1.84-1.67,4.61-.56,2.76,1.95-.61.84-1.23.28-1.84,1.95-.61.84-1.23,1.39-1.84,2.23-1.23,1.12-2.15,2.51-.92,3.63,2.15,1.39,1.84,3.35,1.54,5.3q-.61,2.79,1.23,4.74c.31.28.61.56.61.84.31,1.12,1.54,1.67,2.76,1.39.61,0,1.23,0,1.54.28,1.54.28,1.84.84.61,1.67-1.54.84-3.07,1.39-4.61,2.23-.92.28-1.84.84-2.76,1.67-.61.56-1.23,1.95-.61,2.51,1.23.84,5.53-1.12,6.14-1.12s1.54-.84,2.15.56c.31,1.12-9.52,3.9-10.44,4.18l-.31.28c-1.54,1.39,1.54,1.67,3.38,2.23,1.84.28,7.37-1.67,6.45-.56-.31.28-3.69,1.95-3.99,2.79-.61,1.39-1.84.84-1.84,1.39,0,1.12-.31,1.95-.61,3.07-.61,1.12,0,1.12.92,1.39.61,0,0,1.12,0,1.39,0,.56-.31,1.12-.92,1.67-.61.56-1.23.84-1.84,1.39-.31.28,0,.56,0,.84.31,0,7.37-1.95,7.68-1.95.92-.28,2.15-.56,3.38-.56.61,0,2.76-.28,1.54,1.12-.61.56-.31.28-2.46,1.39-2.46.84-2.15.84-8.91,5.02-1.54.84-3.07,1.95-4.3,2.79-.92.56.31,1.67,1.84,1.12,4.61-1.95,14.74-4.46,14.13-2.79-.92,1.95-2.76,3.07-3.38,4.74-.92,2.23-2.46,1.39-3.07,1.95-.92.84-.31,2.23.92,2.51,1.84.56.61,1.95,0,3.07-1.23,1.67,0,1.39,1.23,1.39.61,0,6.14-.84,6.45-.28.61.84-3.99,2.79-5.53,3.35-1.84.56-3.38,1.39-4.61,2.51-.31.56-1.23,1.95-.92,1.95,1.54,0,2.76-.28,4.3-.56,3.99-.28,4.61-1.95,6.76-1.67,1.54.28-3.07,1.12-4.3,3.35-.92,1.67-1.54,1.39-2.15,1.67-.92.84-2.15,1.39,0,2.51,1.23.56,3.07,1.39,1.84,1.95-.61.56-1.23,1.12-.92,1.95,0,.56,1.23,0,2.76.56.92.28,1.84.28,2.76.28.61,0,1.23.28,1.54.28.61.28,2.46.28,2.46.56s-2.46,1.67-3.07,1.95c-2.15.56-5.22,2.79-5.22,4.46,0,.56,6.45-2.51,7.68-1.95,1.54.84-2.15.56-3.07,2.51-.92,2.23-4.61,1.95-4.91,2.23-.31.56-.61.84-.92,1.12-.31.28-.31.84-.61,1.12h1.23c.31,0,.61-.28.92-.28s.31.28.31.56c-.92,1.12-3.69,2.23-3.07,3.35.31.28,2.46-.84,4.3-1.12,2.76-.56,2.46-1.39,3.69-1.39s2.46-1.12,2.15,0c-.31.56-.92.84-1.84,1.12-1.23.28-1.54,1.12-1.23,1.12,1.23,0,2.76.28,2.76.84,0,.84,1.23.28,1.54.84.31.28,3.69-1.67,3.38.28-.92,1.95-2.46,3.35-4.61,4.18-1.23.56-4.3,1.67-4.3,3.07,0,1.95,9.21,0,11.36.28s2.76.84,1.23,2.51c-.31.56-.92.84-1.54,1.12-.92.56-1.23.84-.61,1.67.92,1.39.31,2.23-1.23,3.07-.92.56-1.84,1.39-2.76,1.95-.31.28-.31.84-.61,1.39.61.28.92.28,1.54.28.92-.28,2.15-.56,3.07-.56,1.84,0,1.84.28,1.23,1.95-.31.84-.31,1.39-.31,2.23,0,1.39-.92,2.79-2.15,3.63-.61.56-1.23.84-1.54,1.39q-1.23,1.39.31,2.23c.31.28.92.84.92,1.39s-.31,1.39-.92,1.67c-1.54.84,5.53-.84,7.37,4.18.31,1.67,6.14,2.51,4.91,3.35-1.84,1.12-3.99,1.67-5.53,2.79-.92.84-1.54,1.67-2.15,2.79.61.28.92.84,1.54,1.12.31.28.61.28.92.56.61,1.39,2.15,2.23,3.99,2.23.92.28,1.84.56,2.76,1.12-.61.84-1.54,1.39-2.46,1.95s-2.46.56-3.38,1.12c-.92.56,1.23.84.61,1.39-.31.84-.31,1.67,0,2.51,0,.28,1.23,0,1.84.28.61,0,.92.28,1.23.56.31.56,0,.84,0,1.39-.31.56-4.3,1.12-4.91,1.39-1.23,1.12-.92,1.95.61,2.51,3.69,1.12,7.99,3.35,6.14,5.86-.92,1.12,0,1.12.61,1.12.61.28.92,0,1.23.28,1.23.28,1.23.84.31,1.67-.61.56-4.61,1.95-5.22,2.51,0,.28-13.21,5.58.31,1.95.31,0,1.54-.56,2.76-1.12.92-.28,2.46-.56,3.69-.84.61-.28,1.54.56,1.54,1.12.31.56-.31,1.39-1.23,1.67-.61,0-1.23.28-1.54.84-.61,1.39-2.46,2.51-2.46,4.46,0,.56-1.23,1.39-2.15,1.67-.31.28-.61.28-.92.56,0,.28-.31.56-.31.84s.31.28.61.28c1.84.84,1.23,1.95,1.23,3.35-.31,1.12,4.61-1.12,6.14-.56,1.23.28,1.84,1.67.92,2.51-1.23,1.12-.61,1.12.61,1.39.61,0,1.84.56,1.84.84,0,1.12-.31,1.95-.61,2.79-.31.28-.92.56-1.54.84-1.23.28-2.15.56-3.38,1.12-.31.28-.31.56-.31.84s.61.56.61.56c1.84-.84,3.07.28,4.61,1.12.92.28-4.61,1.95-2.46,2.79,1.54.56,1.54-.56,2.76-.28,2.15,0-.61,1.67-3.99,1.67-1.84,0-2.76,1.95-3.07,2.23-.92.56-.61,1.95,3.38.56,1.84-.56,7.68,1.95,5.84,2.79-.31,0-3.07,1.67-3.07,1.95-.61.84-1.84.84-.61,1.95.61.28.31,1.12.92,1.39.31,0,2.15,0,2.46.28.61.28,3.07-2.51,3.99-1.12.31.56-3.99,3.35-4.61,3.9-1.23.84-4.3,1.95-5.53,3.35-.31.28,2.76-.56,3.38-.84.92-.56,2.15-.56,3.07.28,0,.28-4.91,1.67-6.45,3.35-.61.56-.61,1.39-1.23,1.95-.92.56-1.23.84.31,1.39.31,0,7.37-1.95,9.83-1.67,2.46.28.31,1.39-.31,1.95-.31.28-.61,3.07-.92,3.35-.61.56-2.76,1.67-3.07,2.23-.92,1.67,13.21,3.35,11.06,4.18C372.84,454.16,9.21,384.71.61,381.36c1.23-1.95,1.54-2.23,1.23-2.51h0Z"/>
      <path class="cls-3" d="m1576.13,282.35c4.3-3.07,8.91-6.14,13.21-9.48,41.15-28.73,83.84-58.57,83.84-102.08,0-34.03-27.03-58.01-65.72-58.01-34.09,0-70.64,20.64-70.64,66.1,0,1.95,0,4.18.31,6.14l27.64-9.76c0-24.82,20.58-38.21,40.85-38.21s39.62,11.44,39.62,36.54c0,32.91-36.85,58.57-87.84,93.99-7.37,5.02-14.74,10.32-22.73,15.9l-.31.28v24.27h144.96v-26.22h-103.19v.56Zm-691.63-84.79l-2.46-.84c-22.73-8.37-39-15.62-39-34.31s15.97-27.89,31.94-27.89c12.9,0,28.87,6.14,35.32,19.8l27.03-9.48-.31-.84c-10.44-23.99-38.39-34.59-61.42-34.59-30.1,0-62.65,17.29-62.65,55.22s31.02,48.53,56.2,57.73l3.07,1.12c25.8,9.48,42.38,17.29,42.38,36.26s-18.12,28.45-36.24,28.45-39-8.65-45.45-32.91l-.31-1.12-28.56,9.76c8.6,30.12,36.85,49.65,72.79,49.65,18.12,0,34.7-5.02,47.3-14.22,14.13-10.32,21.5-24.82,21.5-42.39.31-37.37-32.25-49.09-61.12-59.41h0Zm302.2-34.31c-44.53,0-76.78,31.24-76.78,74.47s32.25,74.47,76.78,74.47,76.78-31.24,76.78-74.47-32.25-74.47-76.78-74.47h0Zm48.52,74.47c0,32.91-24.26,50.2-48.22,50.2s-48.83-17.29-48.83-50.2c0-29.01,20.58-49.93,48.83-49.93s48.22,21.2,48.22,49.93h0Zm145.88,10.88c0,26.22-21.19,40.16-41.15,40.16-15.05,0-31.33-8.09-31.33-31.24v-90.65h-27.64v90.65c0,40.16,28.87,54.67,53.44,54.67,19.96,0,37.16-8.65,46.37-22.59l5.22,19.24h22.42v-141.97h-27.64v81.72h.31Zm99.51-122.16l-27.33,9.76v30.96h-26.11v22.87h26.11v77.82c0,38.77,24.26,44.63,38.7,44.63,6.76,0,13.82-1.12,20.27-2.79l.92-.28v-24.82l-1.84,1.12c-3.99,2.51-8.6,3.63-13.21,3.9-11.06,0-17.2-7.25-17.2-19.8v-79.77h32.55v-22.87h-32.55v-40.72h-.31Zm325.85,109.05v-57.46l-28.25,9.76v47.69h-63.27l77.09-119.37h-31.33l-81.69,126.07v19.24h98.89v47.41h28.25v-47.41h36.55v-25.94h-36.24Zm-729.71,30.4c-7.68,13.39-23.34,22.03-39.93,22.03-23.34,0-46.99-15.62-46.99-50.2,0-23.99,14.13-49.65,45.15-49.65,15.36,0,29.48,7.53,36.55,19.8l26.41-9.2-.61-.84c-11.06-21.2-34.7-34.31-62.34-34.31-19.04-.28-37.16,6.41-50.67,18.41-15.05,13.39-22.73,32.91-22.73,56.06,0,51.04,38.39,74.47,74.02,74.47,27.64,0,52.21-13.67,65.72-36.82l.61-.84h-.31l-24.88-8.93Z"/>
      <path class="cls-2" d="m177.82,112.49h-28.87l-93.36,196.35h34.09l22.11-48.53h103.19l22.11,48.53h34.09l-93.36-196.35Zm25.49,122.44h-80.16l40.23-87.86,39.93,87.86Zm171.68-68.61v82c0,25.94-20.88,40.16-40.85,40.16-15.05,0-31.02-8.09-31.02-30.96v-91.2h-27.95v90.93c0,17.29,5.53,31.8,16.58,41.56,9.83,8.93,23.34,13.67,37.16,13.39,19.66,0,37.16-8.37,46.37-22.31l5.22,18.97h23.03v-142.52h-28.56Zm133.9,23.43v-23.43h-32.55v-40.44l-27.95,9.76v30.68h-26.11v23.43h26.11v77.54c0,39.05,24.57,44.9,39,44.9,6.76,0,13.82-.84,20.27-2.79l.92-.28v-25.66l-2.15,1.39c-3.99,2.23-8.6,3.63-13.21,3.9-10.75,0-17.2-7.25-17.2-19.8v-79.49h32.86v.28Zm88.45-27.05c-22.73,0-42.08,7.53-56.2,22.03-13.51,13.67-20.88,32.35-20.88,52.71s7.37,39.33,20.88,52.71c14.13,14.22,33.78,22.03,56.2,22.03,44.53,0,77.09-31.52,77.09-74.75s-32.55-74.75-77.09-74.75h0Zm.31,124.95c-24.26,0-48.83-17.29-48.83-49.93,0-28.73,20.58-49.65,48.83-49.65s48.22,20.92,48.22,49.65c-.31,32.63-24.26,49.65-48.22,49.93h0Z"/>
    </g>
  </g>
</svg>