<?xml version="1.0" encoding="UTF-8"?>
<svg id="Laag_2" data-name="Laag 2" xmlns="http://www.w3.org/2000/svg" xmlns:xlink="http://www.w3.org/1999/xlink" viewBox="0 0 2238.44 316.03">
  <defs>
    <style>
      .cls-1 {
        fill: #fff;
      }

      .cls-1, .cls-2 {
        stroke-width: 0px;
      }

      .cls-2 {
        fill: #eb7132;
      }
    </style>
    <symbol id="gp-logo" viewBox="0 0 167.67 23.67">
      <g>
        <path class="cls-1" d="m39.61,4.2c-.98,0-1.88.17-2.69.5-.83.32-1.5.78-2.05,1.39-.54.59-.9,1.28-1.09,2.08l2.8,1.15c.29-.71.69-1.26,1.23-1.66s1.17-.59,1.9-.59c.61,0,1.08.11,1.38.36s.46.53.46.9-.13.63-.4.78c-.27.15-.52.27-.75.32l-2.27.65c-1,.29-1.77.74-2.3,1.39s-.81,1.43-.81,2.33.23,1.64.71,2.33c.48.67,1.11,1.2,1.96,1.6.83.38,1.77.57,2.8.57,1.36,0,2.52-.32,3.48-.95.96-.65,1.59-1.53,1.9-2.65l-2.86-1.15c-.12.53-.42.97-.94,1.3-.52.32-1.08.48-1.69.48-.52,0-.94-.1-1.25-.31-.33-.21-.48-.5-.48-.88s.13-.63.42-.78c.29-.17.58-.29.86-.36l2.09-.65c1.02-.31,1.8-.78,2.34-1.41.54-.63.81-1.37.81-2.25s-.23-1.6-.71-2.27c-.48-.67-1.13-1.2-1.96-1.6-.84-.42-1.8-.61-2.9-.61Z"/>
        <path class="cls-1" d="m124.72,4.96l2.63,18.71h3.76l-2.63-18.71h-3.76Z"/>
        <path class="cls-1" d="m91.85,23.67l-.86-6.32c-.33.32-.71.59-1.17.82-.79.38-1.69.57-2.71.57s-1.98-.19-2.9-.53c-.92-.36-1.73-.88-2.44-1.57-.71-.67-1.27-1.49-1.67-2.42-.4-.94-.61-1.99-.61-3.17,0-1.26.27-2.37.83-3.32.54-.95,1.31-1.72,2.28-2.25.98-.53,2.11-.82,3.4-.82.36,0,.73,0,1.08.1.19.04.35.1.52.15.06.02.08.04.13.06,1.81.74,2.19,2.5,2.27,2.96l.02.11s0-.04-.02-.11l-.4-2.96h3.4l2.63,18.71h-3.76Zm-1.98-13.63c-.31-.63-.75-1.13-1.33-1.49-.56-.36-1.23-.55-2-.55-.63,0-1.19.13-1.67.42-.48.29-.84.67-1.11,1.16-.27.5-.4,1.07-.4,1.7,0,.78.17,1.49.5,2.12.33.61.79,1.11,1.38,1.47.6.36,1.25.53,2,.53.63,0,1.17-.13,1.63-.42.46-.29.81-.67,1.07-1.16.25-.5.38-1.05.38-1.68,0-.76-.15-1.47-.46-2.1Z"/>
        <path class="cls-1" d="m108.23,16.32c-.48.76-1.15,1.36-2.03,1.78-.88.42-1.9.65-3.05.65-.92,0-1.8-.15-2.63-.44-.83-.29-1.56-.69-2.19-1.22-.63-.53-1.11-1.16-1.46-1.93l2.88-1.57c.29.59.71,1.09,1.27,1.47s1.21.57,1.92.57c.4,0,.77-.08,1.1-.23.33-.15.6-.36.77-.61.17-.27.25-.59.19-.95l-.04-.34-4.01-.63c-1-.15-1.88-.42-2.67-.78-.79-.38-1.4-.88-1.86-1.49-.46-.61-.69-1.37-.69-2.25,0-.78.19-1.47.56-2.02.36-.55.9-.97,1.57-1.24.67-.29,1.48-.42,2.38-.42.67,0,1.38.08,1.88.25.06.02.1.04.13.06,1.81.74,2.19,2.5,2.27,2.96l.02.11s0-.04-.02-.11l-.4-2.96h3.38l1.21,8.72c.17.99,0,1.87-.46,2.63Zm-3.72-5.9c-.06-.53-.25-1.05-.56-1.51-.31-.46-.69-.84-1.17-1.11-.48-.29-1.02-.42-1.63-.42-.46,0-.85.1-1.15.29-.31.19-.44.5-.44.9,0,.48.19.84.56,1.11.36.25.82.44,1.32.53l3.11.57-.04-.36Z"/>
        <path class="cls-1" d="m122.73,16.32c-.48.76-1.15,1.36-2.04,1.78-.88.42-1.9.65-3.05.65-.92,0-1.8-.15-2.63-.44-.83-.29-1.56-.69-2.19-1.22-.63-.53-1.11-1.16-1.46-1.93l2.88-1.57c.29.59.71,1.09,1.27,1.47s1.21.57,1.92.57c.4,0,.77-.08,1.1-.23.33-.15.6-.36.77-.61.17-.27.25-.59.19-.95l-.04-.34-4.01-.63c-1-.15-1.88-.42-2.67-.78-.79-.38-1.4-.88-1.86-1.49-.46-.61-.69-1.37-.69-2.25,0-.78.19-1.47.56-2.02.36-.55.9-.97,1.57-1.24.67-.29,1.48-.42,2.38-.42.67,0,1.38.08,1.88.25.06.02.1.04.13.06,1.81.74,2.19,2.5,2.27,2.96l.02.11s0-.04-.02-.11l-.4-2.96h3.38l1.21,8.72c.17.99,0,1.87-.46,2.63Zm-3.72-5.9c-.06-.53-.25-1.05-.56-1.51-.31-.46-.69-.84-1.17-1.11-.48-.29-1.02-.42-1.63-.42-.46,0-.84.1-1.15.29-.31.19-.44.5-.44.9,0,.48.19.84.56,1.11.37.25.83.44,1.32.53l3.11.57-.04-.36Z"/>
        <path class="cls-1" d="m32.12,15.9c-.48.76-1.15,1.36-2.04,1.78-.88.42-1.9.65-3.05.65-.92,0-1.8-.15-2.63-.44-.83-.29-1.56-.69-2.19-1.22-.63-.53-1.11-1.16-1.46-1.93l2.88-1.57c.29.59.71,1.09,1.27,1.47.56.38,1.21.57,1.92.57.4,0,.77-.08,1.09-.23.33-.15.6-.36.77-.61.17-.27.25-.59.19-.95l-.04-.34-4.01-.63c-1-.15-1.88-.42-2.67-.78-.79-.38-1.4-.88-1.86-1.49-.46-.61-.69-1.37-.69-2.25,0-.78.19-1.47.56-2.02.36-.55.9-.97,1.57-1.24.67-.29,1.48-.42,2.38-.42.67,0,1.38.08,1.88.25.06.02.1.04.13.06,1.8.74,2.19,2.5,2.27,2.96l.02.11s0-.04-.02-.11l-.4-2.96h3.4l1.21,8.72c.15.99,0,1.87-.48,2.63Zm-3.72-5.9c-.06-.53-.25-1.05-.56-1.51-.31-.46-.69-.84-1.17-1.11-.48-.29-1.02-.42-1.63-.42-.46,0-.84.1-1.15.29-.31.19-.44.5-.44.9,0,.48.19.84.56,1.11.36.25.83.44,1.32.53l3.11.57-.04-.36Z"/>
        <path class="cls-1" d="m61.77,15.5c-.58.99-1.34,1.79-2.32,2.37-.98.59-2.09.88-3.36.88-.63,0-1.21-.08-1.77-.23-1.79-.57-2.23-2.37-2.23-2.37l.35,2.29h-3.38L46.46,0h3.9l.83,6.01c.36-.32.79-.61,1.31-.82.83-.36,1.73-.53,2.75-.53s1.98.19,2.88.57c.88.38,1.67.92,2.34,1.6.67.69,1.19,1.47,1.57,2.39.38.9.58,1.87.58,2.88,0,1.28-.27,2.41-.84,3.4Zm-3.23-5.48c-.35-.63-.83-1.13-1.42-1.49-.61-.36-1.31-.53-2.11-.53-.63,0-1.21.13-1.69.4-.48.27-.86.65-1.13,1.15-.27.5-.4,1.07-.4,1.7,0,.78.17,1.47.5,2.1.33.63.79,1.13,1.38,1.49.6.36,1.29.55,2.07.55.67,0,1.27-.13,1.75-.42.5-.29.88-.67,1.15-1.16.27-.5.42-1.07.42-1.7,0-.76-.17-1.45-.52-2.08Z"/>
        <path class="cls-1" d="m77.2,15.75c-.48.92-1.21,1.66-2.15,2.2-.94.53-2.11.8-3.48.8-1.04,0-1.98-.19-2.86-.57s-1.65-.94-2.3-1.62c-.67-.69-1.17-1.49-1.54-2.39-.36-.9-.54-1.87-.54-2.9,0-1.22.27-2.33.81-3.34.54-1.01,1.31-1.79,2.32-2.39,1.02-.59,2.21-.88,3.57-.88.9,0,1.77.13,2.55.4.79.27,1.48.63,2.07,1.13.6.48,1.06,1.05,1.36,1.72l-2.94,1.51c-.29-.46-.67-.84-1.19-1.11-.52-.29-1.11-.42-1.79-.42-.63,0-1.17.11-1.61.36-.44.25-.79.61-1.02,1.11-.17.38-.29.8-.33,1.3h1.92l7.62.02c.08.36.15.71.19,1.01.06.31.08.63.08.94-.04,1.16-.29,2.21-.77,3.13Zm-6.84-2.41c-1.09,0-2-.44-2.19-1.34.06.5.13.97.29,1.41.23.71.58,1.28,1.08,1.7s1.17.65,2.02.65c.65,0,1.19-.15,1.61-.48.42-.32.69-.74.83-1.3.06-.19.06-.4.08-.63l-3.65-.02h-.06Z"/>
        <path class="cls-1" d="m14.71,15.18h-6.68c-.33,0-.6-.25-.6-.53l-.48-2.79c0-.31.27-.53.6-.53h2.46c.35,0,.92.15,1.02.19l3.32,1.99-.17-1.55v-.04c-.1-.86-.38-1.6-.88-2.21-.48-.61-1.09-1.09-1.82-1.41-.73-.32-1.54-.48-2.4-.48-1.04,0-1.94.23-2.73.69-.79.46-1.4,1.11-1.82,1.95-.44.84-.65,1.83-.65,2.96,0,.94.15,1.79.44,2.6.29.8.71,1.49,1.25,2.1.54.59,1.15,1.07,1.88,1.39.71.32,1.52.5,2.38.5,1.17,0,2.13-.29,2.86-.88.75-.59.98-.99,1.29-1.43l4.13.06c-.25.92-1.11,2.31-1.84,3.13-.63.73-1.5,1.41-2.55,1.95-1.02.52-2.25.67-3.57.67-1.46,0-2.78-.27-4.01-.8-1.23-.53-2.3-1.26-3.21-2.2-.9-.94-1.61-2.02-2.13-3.26s-.77-2.56-.77-3.97.23-2.6.71-3.68c.46-1.09,1.11-2.02,1.92-2.81.81-.78,1.75-1.37,2.8-1.79,1.06-.42,2.19-.63,3.4-.63,1.13,0,2.23.17,3.28.52,1.06.34,2.02.88,2.9,1.57.86.71,1.59,1.57,2.15,2.63.58,1.05.92,2.29,1.06,3.7l.23,2.46-3.74-.04Z"/>
        <path class="cls-2" d="m137.84,23.67h20.64c.4,0,.79-.17,1.07-.46l7.72-8.09c.54-.57.54-1.45,0-2.02l-7.53-7.88c-.29-.29-.67-.46-1.08-.46h-23.21c-.33,0-.63.11-.88.29-.54.4-.69,1.13-.44,1.74l2.44,5.86c.44,1.05.6,2.2.48,3.32l-.65,6.09c-.06.46.1.94.46,1.26.27.21.61.36.98.36Z"/>
        <path class="cls-1" d="m140.95,8.48c.83,0,1.5.67,1.5,1.49s-.67,1.49-1.5,1.49-1.5-.67-1.5-1.49.67-1.49,1.5-1.49Z"/>
        <path class="cls-1" d="m152.97,16.09c-.23.55-.6,1.01-1.09,1.34-.5.32-1.11.5-1.82.5-.56,0-1.04-.11-1.48-.31-.96-.46-1.25-1.58-1.31-1.87l.02.17v-.02l.1.8.08.5.08.53h-2.38l-1.29-9.22h2.55l.75,5.38c.06.36.17.67.37.94.17.27.4.46.69.61.27.15.58.23.9.23.5,0,.88-.15,1.15-.48.27-.32.37-.74.29-1.28l-.75-5.38h2.55l.81,5.69c.1.67.02,1.3-.21,1.87Z"/>
        <path class="cls-1" d="m154.04,8.51l1.57,11.44h2.57l-1.57-11.44h-2.57Z"/>
      </g>
    </symbol>
  </defs>
  <g id="Laag_1-2" data-name="Laag 1">
    <use width="167.67" height="23.67" transform="translate(0 316.03) scale(13.35 -13.35)" xlink:href="#gp-logo"/>
  </g>
</svg>