<?xml version="1.0" encoding="UTF-8"?>
<svg id="Laag_2" data-name="Laag 2" xmlns="http://www.w3.org/2000/svg" viewBox="0 0 2413.28 444.92">
  <defs>
    <style>
      .cls-1 {
        fill: #e2a770;
      }

      .cls-1, .cls-2, .cls-3 {
        fill-rule: evenodd;
        stroke-width: 0px;
      }

      .cls-2 {
        fill: #fff;
      }

      .cls-3 {
        fill: #303c4b;
      }
    </style>
  </defs>
  <g id="Laag_1-2" data-name="Laag 1">
    <g>
      <path class="cls-2" d="m569.75,110.86v28.9l17.6,1-10.63,150.49c-1,8.31-2.66,10.63-8.97,11.63l-10.29,1v27.91h79.04v-28.9l-16.61-1,6.64-119.6h.66l46.83,125.91h34.87l48.16-127.57h1l5.65,110.96c.33,8.31-1,10.3-7.31,11.3l-10.3,1v27.91h79.37v-28.9l-16.94-1-10.3-151.16c-1-6.98,2.32-9.97,8.63-10.96l9.96-1v-27.91h-73.4l-50.81,140.52h-1l-48.82-140.52h-73.06Zm425.43,60.13c-25.24-9.63-49.48-11.96-61.11-11.96-60.11,0-89.34,37.54-89.34,96.01,0,45.18,17.27,81.06,66.42,81.06,21.26,0,36.2-8.97,44.17-21.26l1.33.33,1.33,16.61h53.8v-26.58l-9.3-.66c-5.65-.33-7.31-2.66-7.31-9.3v-124.25Zm-45.83,105.64c0,13.29-9.63,25.58-27.9,25.58-23.91,0-29.89-23.92-29.89-49.5,0-31.56,8.3-59.47,37.2-59.47,8.3,0,16.27,1.66,20.59,3.32v80.06Zm169.37-80.39c3.65,0,6.31.33,8.3,1,2.32,1,2.99,2.66,2.99,7.97v21.93l37.53-2.66v-59.8c-8.97-3.99-20.92-5.65-30.55-5.65-27.56,0-41.85,16.61-47.16,29.9h-.66v-25.58h-60.78v27.91l11.29,1c5.65.33,7.64,2.66,7.64,9.3v92.02c0,7.64-1,9.97-7.97,10.96l-10.63,1v26.24h91.99v-27.57l-27.56-1.33v-75.74c0-17.61,9.63-30.9,25.57-30.9Zm129.19,65.45c6.97-1,13.28-1.99,19.93-4.65l31.88,74.75h55.79v-27.57l-17.93-1-30.22-65.11c15.94-12.96,24.91-29.57,27.23-45.51l14.94-1.99v-27.24h-73.4v26.91l8.63,1c4.32,1,6.97,1.99,6.97,6.31,0,15.28-23.58,29.57-43.84,32.22V94.92h-65.09v27.91l11.29,1c6.31.33,7.64,2.66,7.64,9.63v160.79c0,7.64-1.99,9.3-7.64,10.3l-10.63,1v26.24h79.37v-27.57l-14.95-1v-41.53Zm114.25-66.11h22.58v81.39c0,28.24,2.66,59.47,54.47,59.47,17.27,0,33.21-4.32,42.51-10.63l-7.64-31.56c-5.31,2.99-13.28,5.65-22.25,5.65-13.28,0-20.26-5.32-20.26-24.92v-79.4h39.52l1.66-32.22h-41.18v-38.2h-25.57c-6.97,19.93-15.94,37.54-39.85,41.86l-3.99,28.57Zm151.44,166.77c0,8.31-1.66,9.63-7.97,10.63l-10.3,1.33v26.24h92.99v-27.57l-28.56-1.66v-43.19c8.97,4.98,21.26,8.31,33.21,8.31,46.83,0,71.07-35.88,71.07-94.02,0-53.49-20.92-83.38-59.78-83.38-18.6,0-37.2,6.64-47.49,24.92h-.66v-20.6h-61.44v27.91l10.96.66c5.31.33,7.97,3.32,7.97,9.63v160.79Zm46.5-142.19c0-10.63,8.63-25.91,27.9-25.91,24.24,0,29.23,26.58,29.23,53.82,0,30.23-7.64,53.82-32.55,53.82-8.3,0-17.93-2.99-24.58-7.97v-73.75Zm186.64-125.24h-65.09v27.91l10.96,1c6.31.33,7.97,2.66,7.97,9.63v160.13c0,8.31-1.33,9.63-7.64,10.63l-10.63,1.33v26.24h81.7v-27.57l-17.27-1V94.92Zm184.98,76.08c-25.24-9.63-49.48-11.96-61.11-11.96-60.11,0-89.34,37.54-89.34,96.01,0,45.18,17.27,81.06,66.42,81.06,21.26,0,36.2-8.97,44.17-21.26l1.33.33,1.33,16.61h53.8v-26.58l-9.3-.66c-5.65-.33-7.31-2.66-7.31-9.3v-124.25Zm-45.83,105.64c0,13.29-9.63,25.58-27.9,25.58-23.91,0-29.89-23.92-29.89-49.5,0-31.56,8.3-59.47,37.2-59.47,8.3,0,16.27,1.66,20.59,3.32v80.06Zm231.81-105.64c-25.24-9.63-49.48-11.96-61.11-11.96-60.11,0-89.34,37.54-89.34,96.01,0,45.18,17.27,81.06,66.42,81.06,21.26,0,36.2-8.97,44.17-21.26l1.33.33,1.33,16.61h53.8v-26.58l-9.3-.66c-5.65-.33-7.31-2.66-7.31-9.3v-124.25Zm-45.83,105.64c0,13.29-9.63,25.58-27.9,25.58-23.91,0-29.89-23.92-29.89-49.5,0-31.56,8.3-59.47,37.2-59.47,8.3,0,16.27,1.66,20.59,3.32v80.06Zm74.06-81.06h22.58v81.39c0,28.24,2.66,59.47,54.47,59.47,17.27,0,33.21-4.32,42.51-10.63l-7.64-31.56c-5.31,2.99-13.28,5.65-22.25,5.65-13.28,0-20.26-5.32-20.26-24.92v-79.4h39.52l1.66-32.22h-41.18v-38.2h-25.57c-6.97,19.93-15.94,37.54-39.85,41.86l-3.98,28.57Zm224.5-2.99c3.99,1.33,4.65,3.65,4.65,8.97v13.62l32.88-2.66v-41.53c-14.61-7.97-34.54-11.96-52.81-11.96-39.85,0-69.41,18.94-69.41,54.48s25.24,43.52,49.15,49.83c18.6,4.32,31.55,7.64,31.55,21.93s-10.3,19.27-25.91,19.27c-6.64,0-13.62-1.33-17.93-2.99-3.99-1.33-4.98-3.32-4.98-8.31v-14.95l-33.21,2.66v44.18c12.95,6.98,38.52,11.29,58.78,11.29,42.84,0,70.07-20.26,70.07-56.14s-26.24-42.19-50.48-49.5c-17.6-5.32-31.88-7.97-31.88-22.92,0-11.63,9.96-17.27,23.25-17.27,5.31,0,11.29.33,16.27,1.99h0Z"/>
      <path class="cls-1" d="m222.39,0C99.56,0,0,99.61,0,222.46s99.56,222.46,222.39,222.46,222.39-99.61,222.39-222.46S345.22,0,222.39,0"/>
      <path class="cls-3" d="m297.29,169.86c16.77,16.36,16.77,42.88,0,59.24l-60.17,58.67c-16.78,16.37-43.99,16.37-60.76,0l90.56-88.29-60.17-58.67c-16.78-16.36-16.78-42.88,0-59.23l90.55,88.29Zm-32.32,187.57h-127.09c0-23.15,19.08-41.93,42.64-41.93h127.09c0,23.15-19.09,41.93-42.63,41.93"/>
    </g>
  </g>
</svg>