<?xml version="1.0" encoding="UTF-8"?>
<svg id="Laag_2" data-name="Laag 2" xmlns="http://www.w3.org/2000/svg" viewBox="0 0 576.39 593.21">
  <defs>
    <style>
      .cls-1, .cls-2, .cls-3 {
        stroke-width: 0px;
      }

      .cls-2 {
        fill: #fff;
      }

      .cls-3 {
        fill: #ffda00;
      }
    </style>
  </defs>
  <g id="Laag_1-2" data-name="Laag 1">
    <g>
      <g>
        <path class="cls-3" d="m527.83,73.2c-.06-2.56-1.44-4.9-3.65-6.19l-35.24-20.56c-1.69-.98-2.91-2.61-3.41-4.49l-2.8-10.75c-.92-3.55-4.29-5.86-7.9-5.45l-108.69,12.08c-1.01.12-1.99.43-2.85.94l-56.93,32.88c-1.92,1.1-3.22,3-3.57,5.18l-10.5,64.48c-.59,3.62,1.56,7.12,5.08,8.2l14.83,4.57c.99.3,2.03.39,3.04.27l-1.03.14c3.1-.39,6.12,1.25,7.46,4.07.44.93.65,2.07.69,2.3.14.81.21,1.77-.19,5.16-.09.77-.23,1.84-.42,3.13l1.86,22.96c.28,3.3,2.71,6.01,5.95,6.62l24,4.55c1.58.3,3.22.07,4.66-.64l-.76.37c2.27-1.14,4.97-1.01,7.15.32.57.36.9.93,1.34,1.41-.68.72-1.47,1.35-2.41,1.73l-4.11,1.69c-3.44,1.42-5.29,5.18-4.29,8.75l1.77,6.32c.52,1.89.28,3.9-.7,5.6l-7.9,13.83c-.61,1.07-1.51,1.97-2.58,2.63l-25.23,15.29c-1.07.64-1.93,1.55-2.56,2.61l-7.24,12.5c-.85,1.47-2.17,2.6-3.78,3.2l-8.25,3.09c-1.97.74-4.14.59-6-.39l-26.08-13.81c-.24-.12-.48-.24-.72-.31l-17.87-7.16c-2.1-.85-3.7-2.61-4.33-4.77-.48-1.68-.35-3.47.39-5.07l10.61-23.35c.77-1.7.87-3.65.26-5.43l-5.06-14.77c-.79-2.28-.4-4.81,1.03-6.76,1.44-1.94,3.72-3.04,6.13-2.97l11.7.39c2.25.07,4.4-.88,5.86-2.6l4.75-5.66c1.55-1.83,2.1-4.3,1.49-6.6-.63-2.32-2.32-4.19-4.57-5.03l-11.86-4.34c-2.58-.94-4.42-3.25-4.75-5.98l-1.9-15.09c-.09-.78-.31-1.54-.65-2.26l-5.12-10.69c-.96-2-2.74-3.45-4.88-3.97-2.14-.53-4.38-.07-6.15,1.26l-6.65,4.98c-2.12,1.59-4.92,1.9-7.33.84-2.39-1.12-4.02-3.44-4.22-6.07l-.02-.07c-.28-3.83-3.48-6.78-7.31-6.78h-1.6c-3.61,0-6.69,2.62-7.26,6.17l-16.1,100.66c-.13.69-.33,1.38-.63,2.02l-30.96,64.42c-.35.72-.79,1.36-1.34,1.93l-26.6,27.41c-.13.15-.28.28-.42.41l-12.54,10.97c-1.81,1.58-2.73,3.96-2.45,6.33.26,2.4,1.68,4.49,3.78,5.65l61.32,33.17c1.77.96,3.85,1.14,5.76.53l21.46-6.96c1.93-.64,4.05-.41,5.82.56,1.25.7,2.14,1.82,2.8,3.07-.09,2.89-1.79,5.55-4.61,6.64l-25.34,9.74c-1.45.56-3.08.63-4.6.22l-10.72-2.98c-1.6-.44-3.3-.33-4.83.31l-17.21,7.28c-1.84.78-3.92.77-5.75,0l-4.79-2.06c-2.69-1.14-5.8-.59-7.94,1.42l-5.29,5.02c-1.73,1.65-2.56,4.03-2.21,6.41.35,2.37,1.84,4.41,3.98,5.48l19.38,9.69c1.62.81,2.8,2.21,3.46,3.85-.53,1.57-1.4,3.02-2.85,3.92-2.14,1.34-4.81,1.49-7.09.39l-36.52-17.61c-.85-.41-1.6-.97-2.23-1.64l-6.21-6.78c-1.47-1.62-3.61-2.49-5.78-2.37l-27.52,1.42c-1.73.08-3.39.79-4.66,1.99l-7.48,7.04c-2.91,2.73-3.1,7.28-.42,10.24l9.19,10.23c1.01,1.11,2.32,1.89,3.79,2.23l34.33,8.04c2.47.57,5.07-.16,6.87-1.95l5.19-5.19c1.93-1.92,4.77-2.63,7.39-1.81l44.04,13.81c2.23.69,4.66.29,6.54-1.1,1.88-1.37,3-3.57,3-5.91v-4.26c0-2.88,1.68-5.5,4.29-6.68l1.66-.76c2.49-1.14,5.43-.78,7.59.94,2.15,1.7,3.17,4.48,2.63,7.18l1.1-5.57c-.42,2.16.15,4.39,1.53,6.1,1.4,1.7,3.48,2.7,5.67,2.7h6.52c2.23,0,4.33-1.03,5.71-2.76l7.77-9.71c1.84-2.3,4.82-3.14,7.59-2.41,1.12.98,2.04,2.17,2.43,3.64.5,1.97.16,4.08-.94,5.79l1.51-2.38c-1.22,1.9-1.49,4.24-.77,6.36.74,2.11,2.39,3.79,4.49,4.54l1.01.35c2.95,1.03,6.22.11,8.18-2.34l4.4-5.51c1.45-1.81,3.67-2.82,5.99-2.74,2.32.07,4.46,1.25,5.78,3.15l21.53,31.06c1.38,1.97,3.63,3.16,6.04,3.16h30.23c2.91,0,5.53,1.7,6.7,4.36l3.39,7.61c.99,2.23,3.02,3.83,5.41,4.25l11.9,2.12c2.12.39,3.96,1.67,5.05,3.52,1.09,1.84,1.31,4.07.63,6.1l-17.83,51.99c-.63,1.87-.5,3.92.39,5.66l7.13,14.27c1.16,2.29,3.43,3.82,5.99,4.03l32.8,2.63c3.57.28,6.85-2.08,7.7-5.58l6.96-28.49c.65-2.63-.2-5.4-2.23-7.2l-10.81-9.69c-1.47-1.31-3.41-1.97-5.38-1.84l-1.42.08c-2.12.16-4.22-.63-5.71-2.16-1.42-1.44-2.12-3.39-2.04-5.41.24-2.02,1.27-3.88,2.95-5.07l24.5-17.6c1.66-1.19,2.74-3,3-5.02.26-2.01-.33-4.03-1.62-5.62l-4.03-4.9c-1.86-2.25-2.19-5.4-.87-7.99l16.8-32.9c1.09-2.12,1.07-4.65-.06-6.74l-31.2-59.22c-.44-.87-.72-1.8-.81-2.75l-.85-9.39c-.2-2.08.52-4.15,1.92-5.66,1.42-1.53,3.41-2.38,5.49-2.35l47.13.71c1.1.02,2.19-.21,3.2-.68l29.49-13.66c2.65-1.24,5.78-.76,7.98,1.17l-2.45-2.17c1.64,1.44,3.83,2.1,5.99,1.76,2.15-.32,4.07-1.59,5.19-3.47l5.01-8.34c1.91-3.21,1.12-7.36-1.86-9.61l-8.92-6.78c-1.79-1.36-2.85-3.47-2.89-5.73-.04-2.25.96-4.39,2.71-5.81l6.32-5.14c.17-.12.33-.25.5-.36l33.19-22.64c2.69-1.83,3.85-5.2,2.85-8.31l-11.53-35.95c-.88-2.78-3.34-4.76-6.24-5.07l-21.92-2.25c-3.89-.41-6.8-3.8-6.59-7.7l.99-18.14c.2-3.83,3.33-6.87,7.18-6.94l28.57-.59c3.5-.07,6.48-2.63,7.07-6.1l6.61-38.21c.09-.47.2-.93.39-1.37l14.75-38.56c.35-.89.5-1.83.5-2.77l-.76-36.75Z"/>
        <path class="cls-1" d="m373.66,593.21c-.32,0-.65-.01-.98-.04l-32.82-2.64c-4.26-.34-8.11-2.92-10.05-6.75l-7.14-14.29c-1.46-2.89-1.7-6.35-.66-9.49l17.84-52.02c.21-.63.14-1.35-.2-1.93-.35-.6-.95-1.01-1.64-1.14l-11.88-2.11c-4.02-.71-7.43-3.38-9.1-7.14l-3.39-7.61c-.38-.86-1.2-1.39-2.14-1.39h-30.23c-4.03,0-7.81-1.98-10.14-5.29l-21.55-31.08c-.42-.6-1.11-.98-1.83-1-.76-.03-1.46.3-1.94.88l-4.39,5.49c-3.26,4.09-8.78,5.67-13.73,3.94l-.99-.34c-3.6-1.29-6.34-4.06-7.58-7.62-.92-2.71-.89-5.56.03-8.15l-.27-.17.04-.06c.33-.53.43-1.2.27-1.82,0-.02-.01-.05-.02-.07-.45.09-.9.31-1.24.74l-7.78,9.71c-2.35,2.94-5.85,4.64-9.61,4.64h-6.52c-3.7,0-7.17-1.65-9.54-4.52-1.07-1.32-1.85-2.82-2.31-4.4l-1.36-.27c.17-.87-.15-1.75-.83-2.29-.69-.55-1.63-.67-2.4-.32l-1.67.76c-.84.38-1.37,1.21-1.37,2.13v4.26c0,3.92-1.89,7.64-5.05,9.95-3.13,2.3-7.23,2.99-10.97,1.83l-44.06-13.81c-.84-.27-1.74-.04-2.36.58l-5.19,5.19c-3.05,3.03-7.35,4.25-11.53,3.29l-34.34-8.04c-2.45-.57-4.65-1.86-6.35-3.73l-9.21-10.25c-4.46-4.94-4.14-12.67.73-17.23l7.47-7.03c2.14-2.01,4.93-3.2,7.85-3.34l27.5-1.42c3.71-.19,7.26,1.27,9.74,4.01l6.19,6.76c.18.19.43.38.7.5l36.54,17.61c.3.14.61.22.92.24l-18.22-9.11c-3.6-1.8-6.1-5.25-6.69-9.22-.58-3.97.8-7.99,3.71-10.76l5.29-5.03c3.59-3.38,8.82-4.31,13.34-2.39l4.81,2.07c.56.24,1.23.24,1.81-.01l17.21-7.28c2.55-1.08,5.43-1.26,8.1-.53l10.73,2.99c.48.13,1.01.11,1.46-.07l25.35-9.75c.43-.17.75-.44.97-.77-.51-.22-1.1-.26-1.63-.08l-21.48,6.97c-3.22,1.04-6.74.71-9.69-.89l-61.31-33.17c-3.57-1.97-5.94-5.52-6.37-9.52-.46-3.97,1.08-7.96,4.12-10.63l12.54-10.97s.01,0,0,0l.13-.13,26.6-27.41c.17-.18.31-.38.44-.64l30.95-64.4c.07-.14.15-.42.21-.72l16.09-100.58c.97-6.02,6.09-10.38,12.19-10.38h1.6c6.27,0,11.57,4.77,12.26,10.94v.04s.06.49.06.49c.06.81.56,1.53,1.3,1.9.76.31,1.62.2,2.26-.28l6.66-4.99c2.97-2.23,6.74-3,10.34-2.12,3.59.86,6.58,3.3,8.19,6.66l5.12,10.69c.59,1.27.95,2.54,1.1,3.83l1.89,15.06c.11.87.69,1.61,1.5,1.9l11.87,4.34c3.77,1.41,6.63,4.55,7.68,8.42,1.03,3.91.1,8.06-2.5,11.13l-4.74,5.65c-2.48,2.92-6.06,4.52-9.85,4.38l-11.69-.39c-.77-.02-1.5.33-1.95.95-.45.61-.57,1.42-.32,2.14l5.07,14.79c1.03,3.01.87,6.25-.43,9.12l-10.61,23.36c-.24.53-.28,1.08-.13,1.63.19.66.71,1.23,1.39,1.5l17.72,7.11c.52.18.94.39,1.23.54l.1.05,26.08,13.81c.59.31,1.28.36,1.91.12l8.25-3.09c.51-.19.93-.55,1.2-1.01l7.25-12.51c1.09-1.83,2.57-3.33,4.31-4.38l25.22-15.28c.33-.21.64-.51.82-.83l7.91-13.84c.31-.54.39-1.19.22-1.8l-1.76-6.29c-1-3.59-.3-7.28,1.65-10.19l-23.35-4.43c-5.42-1.02-9.54-5.59-10-11.12l-1.91-23.55.09-.57c.19-1.22.32-2.24.4-2.97.36-3,.26-3.53.23-3.71-.07-.42-.2-.85-.28-1.01-.41-.86-1.37-1.39-2.33-1.26v-.06c-1.37.05-2.72-.12-4.05-.52l-14.88-4.58c-5.86-1.79-9.54-7.72-8.55-13.78l10.5-64.48c.59-3.68,2.79-6.86,6.02-8.71l56.92-32.87c1.43-.84,3.04-1.37,4.77-1.57l108.72-12.08c6.04-.68,11.76,3.26,13.29,9.17l2.8,10.74c.16.59.55,1.12,1.07,1.42l35.26,20.57c3.74,2.18,6.03,6.07,6.13,10.4h0s.76,36.86.76,36.86c0,1.62-.28,3.17-.84,4.59l-14.79,38.65s-.04.1-.09.37l-6.6,38.15c-.99,5.81-5.99,10.12-11.9,10.24l-28.57.59c-1.22.02-2.23.99-2.29,2.21l-.99,18.15c-.06,1.24.87,2.32,2.12,2.45l21.91,2.24c4.9.51,9.02,3.86,10.5,8.52l11.53,35.94c1.68,5.25-.25,10.86-4.8,13.97l-33.44,22.82-6.22,5.06c-.55.45-.87,1.14-.86,1.85.01.73.35,1.4.92,1.83l8.91,6.78c5.01,3.79,6.36,10.74,3.13,16.15l-5.02,8.36c-1.9,3.17-5.08,5.3-8.74,5.84-2.49.39-5.03,0-7.28-1.12l-.3.34c-.71-.63-1.71-.78-2.55-.39l-29.51,13.67c-1.7.79-3.51,1.18-5.39,1.14l-47.13-.71c-.66,0-1.29.26-1.75.75-.44.48-.67,1.13-.61,1.78l.85,9.43c.03.29.13.62.29.93l31.17,59.15c1.89,3.5,1.92,7.76.08,11.35l-16.79,32.89c-.43.83-.32,1.83.26,2.53l4.04,4.91c2.16,2.66,3.15,6.09,2.72,9.43-.43,3.38-2.27,6.46-5.05,8.45l-24.49,17.6c-.45.32-.75.82-.87,1.4.02.42.13,1.03.61,1.51.47.49,1.13.74,1.78.69l1.5-.09c3.24-.21,6.53.92,8.99,3.1l10.83,9.7c3.4,3.03,4.84,7.67,3.75,12.11l-6.96,28.49c-1.35,5.58-6.3,9.42-11.97,9.42Zm-125.96-153.92c.13,0,.26,0,.39,0,3.86.12,7.5,2.1,9.72,5.28l21.54,31.07c.44.62,1.17,1.01,1.93,1.01h30.23c4.87,0,9.3,2.88,11.27,7.33l3.39,7.6c.32.72.96,1.23,1.72,1.37l11.9,2.12c3.58.65,6.66,2.81,8.48,5.91,1.82,3.08,2.2,6.81,1.05,10.22l-17.84,52.01c-.19.58-.16,1.24.12,1.79l7.14,14.29c.36.71,1.1,1.21,1.91,1.28l32.81,2.63c1.12.08,2.17-.68,2.44-1.77l6.97-28.51c.21-.84-.06-1.72-.7-2.28l-10.82-9.7c-.46-.41-1.08-.62-1.72-.58l-1.45.08c-3.53.26-7.05-1.07-9.58-3.66-2.35-2.38-3.59-5.62-3.46-9.08l.03-.41c.41-3.45,2.23-6.57,5-8.55l24.49-17.59c.53-.38.88-.96.96-1.59.08-.64-.11-1.3-.54-1.82l-4.02-4.88c-3.13-3.77-3.7-9.06-1.46-13.45l16.8-32.9c.34-.66.34-1.46,0-2.1l-31.22-59.25c-.76-1.5-1.21-3.02-1.36-4.6l-.85-9.43c-.34-3.44.84-6.92,3.22-9.5,2.38-2.57,5.74-4.02,9.23-3.96l47.14.71c.36.01.7-.07,1.02-.22l29.49-13.66c3.41-1.6,7.32-1.51,10.62.11l.3-.34c.54.47,1.24.68,1.91.58.72-.11,1.34-.52,1.69-1.1l5.01-8.35c.61-1.02.36-2.34-.59-3.05l-8.93-6.79c-3.03-2.31-4.8-5.82-4.86-9.63-.06-3.81,1.6-7.38,4.56-9.78l6.66-5.4c.18-.13.35-.26.53-.38l33.15-22.61c.86-.59,1.23-1.65.91-2.65l-11.53-35.95c-.28-.89-1.07-1.52-2-1.62l-21.91-2.24c-6.56-.69-11.42-6.37-11.08-12.93l1-18.16c.34-6.42,5.65-11.54,12.08-11.67l28.56-.59c1.11-.02,2.06-.84,2.25-1.94l6.63-38.33c.12-.6.29-1.39.65-2.26l14.73-38.51c.11-.29.16-.59.17-.95l-.76-36.68c-.02-.82-.45-1.56-1.17-1.98l-35.24-20.56c-2.79-1.61-4.88-4.35-5.72-7.52l-2.81-10.77c-.3-1.14-1.35-1.88-2.51-1.74l-108.69,12.08c-.31.04-.63.14-.88.28l-56.96,32.89c-.62.35-1.03.95-1.14,1.64l-10.5,64.49c-.19,1.17.49,2.27,1.61,2.61l14.84,4.57c.3.09.64.12.98.08v.06c4.87-.19,9.41,2.52,11.53,6.97.65,1.36.97,2.83,1.1,3.58.25,1.43.3,2.85-.15,6.62-.08.69-.2,1.61-.36,2.71l1.81,22.39c.09,1.05.86,1.92,1.89,2.11l24.01,4.55c.48.09,1,.03,1.44-.18l.1-.05v.02c3.62-1.49,7.82-1.16,11.19.91,1.15.72,1.83,1.57,2.24,2.08.06.07.11.14.17.21l3.08,3.43-3.13,3.39c-1.25,1.32-2.64,2.3-4.14,2.91l-4.1,1.69c-1.11.46-1.7,1.65-1.38,2.78l1.77,6.31c.87,3.19.44,6.63-1.18,9.44l-7.89,13.82c-1,1.76-2.48,3.28-4.28,4.4l-25.28,15.32c-.34.21-.63.5-.85.88l-7.21,12.46c-1.4,2.45-3.66,4.36-6.33,5.37l-8.27,3.1c-3.29,1.23-6.97.99-10.08-.64l-26.34-13.91-17.87-7.16c-3.57-1.44-6.21-4.36-7.27-8.02-.81-2.86-.58-5.89.65-8.55l10.6-23.33c.25-.55.28-1.17.08-1.75l-5.06-14.76c-1.32-3.82-.68-8.07,1.73-11.35,2.42-3.26,6.27-5.12,10.31-5l11.71.39c.72,0,1.41-.28,1.88-.84l4.73-5.64c.5-.59.68-1.38.49-2.11-.2-.73-.75-1.35-1.48-1.62l-11.83-4.33c-4.37-1.59-7.44-5.45-8-10.07l-1.89-15.07c-.03-.28-.11-.53-.22-.78l-5.09-10.63c-.31-.64-.87-1.11-1.54-1.27-.7-.17-1.41-.02-1.98.4l-6.65,4.98c-3.53,2.66-8.26,3.2-12.34,1.42l-.12-.05c-3.88-1.82-6.55-5.53-7.03-9.75l-.02-.07-.05-.5c-.09-1.2-1.11-2.14-2.32-2.14h-1.6c-1.16,0-2.14.83-2.32,1.96l-16.12,100.79c-.22,1.15-.55,2.23-1.01,3.2l-30.99,64.48c-.6,1.22-1.35,2.31-2.26,3.24l-26.54,27.35c-.18.2-.37.38-.57.57l-.21.2-12.54,10.97c-.56.49-.86,1.26-.78,1.99.09.8.54,1.48,1.23,1.86l61.28,33.15c.56.3,1.23.36,1.85.16l21.45-6.96c3.21-1.05,6.78-.71,9.78.94,1.97,1.1,3.58,2.81,4.8,5.09l.63,1.18-.04,1.34c-.16,5-3.22,9.38-7.8,11.14l-25.35,9.75c-2.42.93-5.16,1.07-7.71.38l-10.75-2.99c-.51-.14-1.05-.11-1.54.1l-17.2,7.27c-3.06,1.3-6.58,1.3-9.65,0l-4.81-2.07c-.84-.36-1.85-.18-2.53.47l-5.27,5c-.55.53-.82,1.3-.71,2.06.11.74.58,1.39,1.27,1.74l19.38,9.69c2.63,1.31,4.71,3.6,5.86,6.45l.7,1.72-.6,1.76c-1,2.94-2.66,5.15-4.95,6.57-3.59,2.26-8.05,2.5-11.9.64l-36.52-17.61c-1.39-.67-2.65-1.59-3.71-2.73l-6.24-6.81c-.47-.52-1.15-.79-1.84-.76l-27.52,1.42c-.56.03-1.08.25-1.49.64l-7.48,7.04c-.92.86-.98,2.32-.14,3.25l9.2,10.24c.31.35.73.59,1.2.7l34.35,8.04c.79.18,1.62-.05,2.2-.63l5.19-5.19c3.28-3.27,8.04-4.43,12.43-3.04l44.02,13.8c.7.22,1.48.09,2.08-.35.61-.44.96-1.15.96-1.88v-4.26c0-4.85,2.84-9.26,7.24-11.24l1.64-.75c4.23-1.94,9.13-1.34,12.78,1.58,2.05,1.62,3.48,3.8,4.17,6.21l1.35.27c-.14.7.05,1.42.5,1.98.44.53,1.1.85,1.79.85h6.52c.69,0,1.36-.33,1.8-.88l7.78-9.71c3-3.76,8.01-5.38,12.76-4.12l1.13.3.88.76c2.04,1.77,3.38,3.83,3.99,6.13.61,2.42.49,4.93-.31,7.21l.27.17-.02.03c-.39.61-.47,1.36-.24,2.05.22.64.77,1.19,1.45,1.44l.95.33c.97.34,2.02.04,2.64-.73l4.41-5.51c2.35-2.92,5.94-4.63,9.66-4.63Z"/>
      </g>
      <g>
        <path class="cls-3" d="m215.83,117.39l11.16-2.7c1.86-.45,3.37-1.81,4-3.62l4-11.42c.64-1.84.29-3.87-.92-5.38l-5.99-7.48c-1.22-1.55-3.19-2.32-5.16-2.05-1.95.27-3.63,1.56-4.4,3.38l-9.19,21.59c-.83,1.95-.5,4.22.88,5.84,1.38,1.62,3.56,2.34,5.62,1.84Z"/>
        <path class="cls-1" d="m214.5,122.55c-3.07,0-6.02-1.34-8.09-3.75-2.62-3.08-3.27-7.31-1.68-11.04l9.19-21.59c1.45-3.43,4.64-5.87,8.32-6.38,3.73-.51,7.47,1,9.77,3.92l5.96,7.44c2.31,2.87,2.96,6.67,1.74,10.15l-4,11.42c-1.18,3.41-4,5.97-7.54,6.83l-11.17,2.7c-.83.2-1.67.3-2.51.3Zm9.19-32.86s-.06,0-.1,0c-.2.03-.39.18-.47.38l-9.19,21.59c-.09.21-.06.47.09.64.16.19.41.28.64.23l11.16-2.7c.21-.05.38-.2.45-.4l4-11.43c.07-.21.04-.43-.1-.59l-5.99-7.49c-.12-.15-.3-.23-.48-.23Z"/>
      </g>
      <g>
        <path class="cls-3" d="m230.09,73.5c-.05-.11-.04-.22-.07-.32-.04-.08-.11-.13-.15-.21l.22.53Z"/>
        <path class="cls-1" d="m226.13,76.31c-.08-.1-.27-.32-.47-.64l-.06.03c-.07-.13-.12-.27-.17-.39l-.18-.44h.03c-.13-.45-.17-.79-.19-.94.02.16.08.51.22.91l9.14-3.9c-.23-.52-.51-.9-.7-1.12.13.15.52.61.83,1.31l.14.36c.18.5.24.92.28,1.19-.03-.22-.1-.62-.29-1.1l-9.03,4.07c.16.28.33.5.45.65Z"/>
      </g>
      <g>
        <path class="cls-3" d="m233.49,76.2c1.64.48,3.41.17,4.81-.81l18.51-13.06c1.29-.92,2.15-2.34,2.34-3.93.15-1.29-.26-2.53-.92-3.61-.72-.27-1.81-.69-3.14-1.23-4.7-1.94-6.48-3.08-7.5-3.4-2.48-.77-7.01,1.27-16,14-.6,1.19-1.33,3-1.59,5.31-.16,1.44-.11,2.7.02,3.7.7,1.46,1.93,2.57,3.48,3.03Z"/>
        <path class="cls-1" d="m235.07,81.43c-.99,0-2-.14-2.98-.43h-.02c-2.86-.86-5.25-2.92-6.57-5.68l-.35-.73-.1-.81c-.2-1.62-.21-3.27-.02-4.88.28-2.44.98-4.79,2.1-7l.17-.33.21-.3c9.17-12.98,15.62-17.73,21.56-15.89.8.25,1.53.61,2.55,1.11,1.18.58,2.79,1.37,5.39,2.44,1.26.52,2.3.92,2.98,1.17l1.61.6.9,1.46c1.33,2.16,1.89,4.51,1.63,6.79-.35,2.98-1.95,5.68-4.4,7.44l-18.54,13.08c-1.83,1.29-3.96,1.95-6.12,1.95Zm-.16-10.02c.17.04.36,0,.52-.1l18.29-12.91c-.17-.07-.35-.14-.53-.22-2.91-1.2-4.76-2.11-5.99-2.72-.23-.11-.48-.24-.69-.34-.95.45-4.14,2.51-10.6,11.6-.49,1.06-.81,2.17-.94,3.32-.05.45-.07.91-.07,1.36,0,0,0,0,.01,0Z"/>
      </g>
      <g>
        <path class="cls-3" d="m257.79,54.03c.2.22.28.52.44.76.26.21.55.38.79.64l-1.23-1.4Z"/>
        <path class="cls-1" d="m255.68,59.12l-.08-.06c-.19-.13-.37-.27-.54-.41l-.57-.47-.41-.61c-.27-.4-.44-.75-.53-.94.03.05.19.36.49.71l7.43-6.69s.08.09.12.13l1.19,1.35-.21.19s0,0,0,0c0,0,0,0,0,0l-7.21,6.52c.1.11.21.21.32.3Z"/>
      </g>
      <g>
        <path class="cls-3" d="m314.85,26.28c.13.22.11.48.2.71.22.26.44.48.61.77l-.81-1.48Z"/>
        <path class="cls-1" d="m311.54,30.56l-.82-.94-.31-.77c-.22-.56-.31-1.03-.35-1.25.03.15.13.58.4,1.08l7.63-4.3.75-.65.09.1s.03.03.04.05l.2-.11c.03.06.07.12.1.17l.78,1.42-.21.12c.03.11.04.21.06.29-.02-.09-.04-.18-.07-.28l-8.52,4.72c.07.13.15.25.24.35Z"/>
      </g>
      <g>
        <path class="cls-3" d="m269.71,46.67c1.57,1.56,3.89,2.06,5.97,1.28l36.23-13.68c1.55-.57,2.74-1.79,3.3-3.32.48-1.31.37-2.69-.15-3.96-1.27-1.58-3.3-2.41-5.36-2.02l-34.72,6.65c-1.2.23-2.28.84-3.11,1.74l-3.76,4.13c-2.01,2.24-1.93,5.65.18,7.77l1.42,1.41Z"/>
        <path class="cls-1" d="m273.7,53.31c-2.77,0-5.49-1.08-7.51-3.09l-1.42-1.41c-4.01-4.01-4.17-10.44-.38-14.66l3.78-4.15c1.58-1.72,3.6-2.85,5.87-3.28l34.72-6.65c3.82-.73,7.73.72,10.2,3.8l.46.57.28.68c1.01,2.49,1.08,5.17.21,7.56-1.05,2.91-3.33,5.21-6.26,6.3l-36.19,13.66c-1.22.46-2.48.68-3.74.68Zm34.39-22.94l-32.17,6.16c-.14.03-.27.1-.37.21l-3.74,4.11c-.21.24-.21.64.02.87l1.41,1.4c.18.18.44.24.68.15l34.17-12.9Z"/>
      </g>
      <g>
        <path class="cls-3" d="m331.24,29.84c7.09-.24,12.99-.98,17.35-1.68,10.55-1.71,13.44-3.47,15-6,.25-.41,2.27-3.68,1-6-.65-1.18-2.15-2.1-19-1-6.85.45-11.14.9-14.84,4.13-1.08.94-1.83,1.87-2.32,2.55l-.2.45c-.65,1.4-.68,3-.11,4.44.59,1.42,1.71,2.54,3.13,3.11Z"/>
        <path class="cls-1" d="m330.35,34.88l-.98-.4c-2.64-1.06-4.78-3.19-5.88-5.83-1.1-2.77-1.02-5.82.19-8.45l.39-.87.3-.41c.9-1.25,1.94-2.4,3.09-3.4,5.19-4.52,11.32-4.92,17.8-5.35,19.27-1.26,21.69-.09,23.71,3.58,2.42,4.4.02,9.19-1.13,11.04-2.73,4.41-7.38,6.51-18.45,8.31-5.88.95-11.93,1.54-17.98,1.75l-1.06.04Zm2.41-10.48c-.05.14-.06.27-.03.39,5.08-.23,10.13-.76,15.06-1.56,8.7-1.41,10.78-2.67,11.44-3.54-2.19-.07-6.16,0-13.31.46-6.57.43-9.48.81-11.89,2.91-.46.4-.88.85-1.27,1.33Z"/>
      </g>
      <g>
        <path class="cls-3" d="m390.52,17.56v1.27c0-.26.09-.48.13-.73-.02-.19-.13-.35-.13-.54Z"/>
        <path class="cls-1" d="m395.44,19.56s.07-.33.07-.73h-9.82c.05.33.13.57.16.68-.05-.13-.13-.37-.2-.68h-.15v-1.27h.13c.03-.15.06-.28.08-.37,0,.03-.02.1-.03.17l1.33.2h8.48c0-.66-.15-1.17-.22-1.36.12.35.27.82.32,1.44l.06.61-.09.6c-.04.25-.09.48-.15.72Z"/>
      </g>
      <g>
        <path class="cls-3" d="m390.59,19.16c4.24,2.26,8.69.82,17-2,5.88-2,15.36-5.22,15-8-.43-3.34-14.68-3.82-20-4-9.36-.32-16.37-.56-18,3-1.47,3.2,1.76,8.74,6,11Z"/>
        <path class="cls-1" d="m395.11,25.27c-2.36,0-4.61-.49-6.87-1.7-7.47-3.98-10.48-12.52-8.19-17.5,3.02-6.57,11.71-6.28,22.71-5.91,15.81.54,23.98,1.98,24.79,8.36.88,6.84-8.46,10.01-18.35,13.37-5.45,1.85-9.94,3.37-14.09,3.37Zm-5.79-14.77c.36,1.19,1.74,3.25,3.62,4.25h0c2.22,1.18,5.17.35,13.04-2.32,1.16-.39,3.07-1.04,5.06-1.78-2.21-.2-5.03-.37-8.61-.49-4.65-.16-10.84-.37-13.11.34Z"/>
      </g>
      <g>
        <path class="cls-3" d="m109.55,376.75l30.76,20.11c1.07.7,2.3,1.1,3.57,1.18l8.84.52c2.43.14,4.77-.93,6.26-2.84l.98-1.29c1.31-1.71,1.81-3.9,1.36-6.02-.46-2.1-1.81-3.9-3.72-4.92l-37.87-20.3c-1.81-.96-3.92-1.12-5.88-.46l-2.71.94c-2.63.94-4.53,3.26-4.86,6.05-.35,2.77.92,5.5,3.26,7.03Z"/>
        <path class="cls-1" d="m153.15,403.57c-.23,0-.47,0-.71-.02l-8.85-.52c-2.14-.12-4.22-.81-6.01-1.98l-30.76-20.11c-3.92-2.56-6.07-7.2-5.48-11.84.55-4.64,3.67-8.54,8.14-10.14l2.75-.95c3.27-1.11,6.85-.83,9.86.77l37.89,20.31c3.18,1.68,5.46,4.7,6.24,8.25.75,3.58-.08,7.26-2.27,10.13l-.96,1.27c-2.4,3.08-6.02,4.84-9.83,4.84Zm-36.87-36.25c-.27,0-.54.04-.81.14l-2.67.93c-.83.3-1.43,1.04-1.54,1.92-.11.91.28,1.76,1.03,2.25h0s30.76,20.12,30.76,20.12c.34.22.73.35,1.13.37l8.85.52c.78.04,1.54-.3,2.02-.93l.93-1.23c.44-.57.6-1.29.45-1.98-.14-.63-.57-1.21-1.17-1.52l-37.89-20.31c-.34-.18-.71-.27-1.09-.27Z"/>
      </g>
      <g>
        <path class="cls-3" d="m79.18,398.29c.96,1.43,2.4,2.5,4.05,2.98l26.84,7.77c2.14.61,4.46.23,6.28-1.05l3.76-2.67c1.88-1.33,3.04-3.48,3.09-5.78.07-2.32-.98-4.53-2.78-5.97l-7.11-5.61c-1.03-.82-2.27-1.35-3.57-1.51l-25.75-3.49c-2.6-.35-5.18.7-6.78,2.76l-.2.27c-1.93,2.5-2.06,5.94-.31,8.57l2.49,3.73Z"/>
        <path class="cls-1" d="m112.12,414.32c-1.14,0-2.29-.16-3.42-.48l-26.86-7.78c-2.77-.8-5.19-2.57-6.81-4.99h0s-2.49-3.74-2.49-3.74c-2.94-4.43-2.73-10.22.52-14.41l.17-.23c2.72-3.5,7.08-5.28,11.43-4.69l25.75,3.49c2.16.27,4.26,1.16,6.01,2.55l7.1,5.6c3.06,2.44,4.81,6.19,4.68,10.05-.09,3.82-2.04,7.47-5.21,9.71l-3.74,2.66c-2.13,1.49-4.61,2.26-7.12,2.26Zm-28.79-18.82c.31.46.78.81,1.29.95l26.84,7.77c.67.19,1.44.07,2.02-.34l3.73-2.65c.6-.42.98-1.12.99-1.82.02-.76-.31-1.47-.9-1.94l-7.09-5.6c-.33-.26-.71-.42-1.1-.47l-25.8-3.5c-.82-.11-1.65.22-2.16.88l-.17.23c-.65.84-.69,1.94-.13,2.78l2.48,3.71Z"/>
      </g>
      <g>
        <path class="cls-3" d="m140.42,456.93l-21.9-3.77c-3.04-.52-6.08.91-7.62,3.59l-1.97,3.48c-1.44,2.53-4.22,3.96-7.11,3.66l-20.17-2.01c-.66-.07-1.29-.22-1.92-.45l-19.29-7.41c-1.44-.57-3.04-.64-4.53-.24l-15.58,4.18c-2.78.76-4.86,3.06-5.32,5.88l-1.11,6.61c-.44,2.63.59,5.3,2.69,6.95l10.04,7.94c1.86,1.45,4.31,1.93,6.58,1.29l4.73-1.35c2.34-.66,4.2-2.43,4.95-4.74l-.35,1.06c.66-1.98,2.12-3.58,4.03-4.4,1.9-.84,4.07-.82,5.97.03l28.16,12.82c1.55.69,3.28.85,4.94.4l21.35-5.69c1.31-.35,2.49-1.05,3.43-2.03l13.61-14.24c2.21-2.29,2.6-5.73,1.11-8.51-1.12-1.6-2.78-2.75-4.72-3.07Z"/>
        <path class="cls-1" d="m103.77,495.71c-1.74,0-3.48-.36-5.09-1.08l-28.2-12.83c-.58-.26-1.28-.27-1.88,0-.64.27-1.1.78-1.31,1.42l-.05-.02c-1.46,3.36-4.35,5.91-7.94,6.92l-4.72,1.35c-3.8,1.08-7.92.27-11.03-2.16l-10.06-7.96c-3.53-2.79-5.26-7.27-4.52-11.7l1.1-6.61c.77-4.73,4.28-8.62,8.94-9.89l15.6-4.19c2.53-.69,5.26-.54,7.68.42l19.23,7.39c.18.07.41.12.67.15l20.12,2c.94.1,1.81-.35,2.27-1.16l1.97-3.48c2.6-4.5,7.74-6.92,12.81-6.06l21.9,3.77c3.2.54,6.03,2.36,7.97,5.13l.31.51c2.55,4.75,1.78,10.51-1.91,14.34l-13.6,14.22c-1.59,1.65-3.57,2.82-5.75,3.4l-21.35,5.69c-1.04.28-2.1.41-3.17.41Zm-34.26-24.12c1.73,0,3.46.36,5.08,1.08l28.19,12.83c.49.22,1.05.27,1.58.12l21.35-5.69c.42-.11.8-.34,1.11-.66l13.6-14.22c.62-.64.77-1.58.44-2.43-.27-.31-.69-.67-1.26-.76h-.02s-21.9-3.77-21.9-3.77c-.96-.17-1.95.3-2.45,1.16l-1.95,3.45c-2.41,4.25-7.11,6.67-11.97,6.18l-20.16-2.01c-1.12-.12-2.13-.36-3.14-.73l-19.36-7.44c-.47-.19-.96-.21-1.43-.08l-15.6,4.19c-.87.24-1.54.97-1.68,1.86l-1.11,6.63c-.14.83.19,1.68.85,2.2l10.04,7.94c.58.45,1.38.61,2.11.4l4.73-1.35c.75-.21,1.33-.76,1.57-1.47v-.03s.06.02.06.02c1.25-2.87,3.54-5.16,6.42-6.39,1.54-.68,3.21-1.02,4.9-1.02Z"/>
      </g>
      <g>
        <path class="cls-3" d="m144.95,459.55c.09.14.11.3.18.45.07.11.2.16.28.28l-.46-.73Z"/>
        <path class="cls-1" d="m142.12,464.02c-.3-.24-.74-.64-1.15-1.25l-.31-.54c-.2-.39-.31-.73-.35-.88.04.12.17.47.42.87l8.3-5.36c-.24-.29-.47-.5-.6-.61.18.14.4.33.63.59l.07-.05s.05.08.08.12l.43.69-.05.03c.1.23.18.44.23.62-.05-.16-.12-.33-.21-.49l-1.04.52-7.34,4.73c.34.51.7.85.89,1Z"/>
      </g>
      <g>
        <path class="cls-3" d="m327.63,208.91c-3.78-.72-7.09-2.63-9.62-5.3l-25.05,27.16-37.04,18.59-1.16,2.51,14.94,5.96c.57.24,1.16.5,1.71.8l24.88,13.17,5.97-2.24,6.7-11.57c1.49-2.58,3.61-4.73,6.13-6.28l24.59-14.88,6.89-12.04-1.42-5.1c-.7-2.54-.83-5.1-.42-7.54l-17.11-3.23Z"/>
        <path class="cls-1" d="m295.95,277.28l-26.87-14.22c-.43-.23-.9-.44-1.31-.61l-19.75-7.88,4.1-8.89,37.79-18.96,28.06-30.42,3.68,3.88c1.9,2,4.29,3.32,6.92,3.82l21.92,4.14-.8,4.82c-.29,1.77-.19,3.58.31,5.4l1.97,7.1-8.57,14.98-25.7,15.55c-1.8,1.1-3.33,2.67-4.4,4.51l-7.6,13.12-9.75,3.66Zm-31.14-26.78l6.75,2.69c.73.3,1.49.64,2.26,1.06l22.83,12.08,2.19-.82,5.81-10.02c1.89-3.27,4.61-6.05,7.85-8.04l23.51-14.23,5.21-9.11-.86-3.09c-.44-1.59-.7-3.18-.8-4.77l-12.85-2.43c-2.95-.56-5.73-1.69-8.22-3.33l-22.45,24.34-31.22,15.66Z"/>
      </g>
    </g>
    <g>
      <g>
        <rect class="cls-1" y="186.47" width="466.84" height="106.96"/>
        <g>
          <path class="cls-2" d="m76.45,217.93h9.44v44.04h-9.06l-21.33-28.31v28.31h-9.5v-44.04h9.06l21.39,28.44v-28.44Z"/>
          <path class="cls-2" d="m128.1,261.97l-3.46-8.56h-20.39l-3.46,8.56h-10.26l19.13-44.04h10.26l18.81,44.04h-10.63Zm-20.57-16.55h13.9l-6.92-17.11-6.98,17.11Z"/>
          <path class="cls-2" d="m134.39,217.93h36.81v8.43h-13.46v35.61h-9.94v-35.61h-13.4v-8.43Z"/>
          <path class="cls-2" d="m176.55,217.93h9.94v44.04h-9.94v-44.04Z"/>
          <path class="cls-2" d="m228.77,220.19c3.61,1.97,6.45,4.69,8.53,8.15s3.11,7.31,3.11,11.55-1.04,8.1-3.11,11.58c-2.08,3.48-4.92,6.22-8.53,8.21-3.61,1.99-7.61,2.99-12.02,2.99s-8.41-1-12.02-2.99c-3.61-1.99-6.45-4.72-8.53-8.18-2.08-3.46-3.11-7.33-3.11-11.61s1.04-8.09,3.11-11.55c2.08-3.46,4.91-6.18,8.49-8.15,3.59-1.97,7.6-2.96,12.05-2.96s8.41.99,12.02,2.96Zm-18.69,7.58c-2.1,1.24-3.75,2.93-4.97,5.06-1.22,2.14-1.82,4.49-1.82,7.05s.62,4.97,1.86,7.11c1.24,2.14,2.89,3.84,4.97,5.1s4.33,1.89,6.76,1.89,4.67-.62,6.7-1.86c2.03-1.24,3.65-2.94,4.84-5.1,1.2-2.16,1.79-4.54,1.79-7.14s-.6-4.91-1.79-7.05c-1.2-2.14-2.81-3.83-4.84-5.06-2.03-1.24-4.27-1.86-6.7-1.86s-4.7.62-6.79,1.86Z"/>
          <path class="cls-2" d="m277.4,217.93h9.44v44.04h-9.06l-21.33-28.31v28.31h-9.5v-44.04h9.06l21.39,28.44v-28.44Z"/>
          <path class="cls-2" d="m329.05,261.97l-3.46-8.56h-20.39l-3.46,8.56h-10.26l19.13-44.04h10.26l18.81,44.04h-10.63Zm-20.57-16.55h13.9l-6.92-17.11-6.98,17.11Z"/>
          <path class="cls-2" d="m376.81,261.97l-3.46-8.56h-20.39l-3.46,8.56h-10.26l19.13-44.04h10.26l18.81,44.04h-10.63Zm-20.57-16.55h13.9l-6.92-17.11-6.98,17.11Z"/>
          <path class="cls-2" d="m392.03,217.93h9.94v35.36h18.88v8.68h-28.82v-44.04Z"/>
        </g>
      </g>
      <g>
        <rect class="cls-1" x="163.99" y="262.09" width="412.4" height="106.96"/>
        <g>
          <path class="cls-3" d="m248.61,337.66l-3.46-8.56h-20.39l-3.46,8.56h-10.26l19.13-44.04h10.26l18.81,44.04h-10.63Zm-20.57-16.55h13.9l-6.92-17.11-6.98,17.11Z"/>
          <path class="cls-3" d="m274.43,326.93c1.78,1.82,4.16,2.74,7.14,2.74s5.2-.9,6.92-2.71c1.72-1.8,2.58-4.3,2.58-7.49v-25.86h9.94v25.86c0,3.86-.79,7.2-2.36,10.04s-3.83,5.01-6.76,6.54c-2.94,1.53-6.4,2.3-10.38,2.3s-7.47-.76-10.44-2.3c-2.98-1.53-5.26-3.71-6.86-6.54-1.59-2.83-2.39-6.18-2.39-10.04v-25.86h9.94v25.86c0,3.15.89,5.63,2.67,7.46Z"/>
          <path class="cls-3" d="m305.61,293.61h36.81v8.43h-13.46v35.61h-9.94v-35.61h-13.4v-8.43Z"/>
          <path class="cls-3" d="m377.9,295.88c3.61,1.97,6.45,4.69,8.53,8.15s3.11,7.31,3.11,11.55-1.04,8.1-3.11,11.58c-2.08,3.48-4.92,6.22-8.53,8.21-3.61,1.99-7.61,2.99-12.02,2.99s-8.41-1-12.02-2.99c-3.61-1.99-6.45-4.72-8.53-8.18-2.08-3.46-3.11-7.33-3.11-11.61s1.04-8.09,3.11-11.55c2.08-3.46,4.91-6.18,8.49-8.15,3.59-1.97,7.6-2.96,12.05-2.96s8.41.99,12.02,2.96Zm-18.69,7.58c-2.1,1.24-3.75,2.93-4.97,5.06-1.22,2.14-1.82,4.49-1.82,7.05s.62,4.97,1.86,7.11c1.24,2.14,2.89,3.84,4.97,5.1s4.33,1.89,6.76,1.89,4.67-.62,6.7-1.86c2.03-1.24,3.65-2.94,4.84-5.1,1.2-2.16,1.79-4.54,1.79-7.14s-.6-4.91-1.79-7.05c-1.2-2.14-2.81-3.83-4.84-5.06-2.03-1.24-4.27-1.86-6.7-1.86s-4.7.62-6.79,1.86Z"/>
          <path class="cls-3" d="m417.88,302.58c-2.54-.82-4.71-1.23-6.51-1.23s-3.08.31-4.09.94-1.51,1.55-1.51,2.77c0,1.55.72,2.74,2.17,3.55,1.45.82,3.68,1.67,6.7,2.55,3.02.88,5.51,1.76,7.46,2.64,1.95.88,3.62,2.2,5,3.96,1.38,1.76,2.08,4.09,2.08,6.98s-.75,5.23-2.23,7.27c-1.49,2.03-3.53,3.58-6.13,4.62-2.6,1.05-5.56,1.57-8.87,1.57-3.57,0-7.07-.63-10.51-1.89-3.44-1.26-6.42-2.98-8.93-5.16l3.96-8.12c2.22,2.01,4.78,3.63,7.68,4.84,2.89,1.22,5.54,1.82,7.93,1.82,2.05,0,3.66-.38,4.81-1.13,1.15-.75,1.73-1.85,1.73-3.27,0-1.13-.39-2.07-1.16-2.8-.78-.73-1.76-1.33-2.96-1.79-1.2-.46-2.84-.98-4.94-1.57-3.02-.84-5.48-1.68-7.39-2.52-1.91-.84-3.55-2.12-4.94-3.84-1.38-1.72-2.08-4-2.08-6.86,0-2.64.71-4.96,2.14-6.95,1.43-1.99,3.42-3.52,5.98-4.59s5.54-1.6,8.93-1.6c3.02,0,6,.44,8.93,1.32,2.94.88,5.54,2.06,7.8,3.52l-3.84,8.24c-2.26-1.38-4.67-2.49-7.2-3.3Z"/>
          <path class="cls-3" d="m442.17,329.6c.9.92,1.35,2.12,1.35,3.59s-.45,2.67-1.35,3.62c-.9.94-2.07,1.42-3.49,1.42s-2.54-.48-3.46-1.45c-.92-.96-1.38-2.16-1.38-3.59s.46-2.66,1.38-3.59c.92-.92,2.08-1.38,3.46-1.38s2.59.46,3.49,1.38Z"/>
          <path class="cls-3" d="m481.39,293.61h9.44v44.04h-9.06l-21.33-28.31v28.31h-9.5v-44.04h9.06l21.39,28.44v-28.44Z"/>
          <path class="cls-3" d="m500.52,293.61h9.94v35.36h18.88v8.68h-28.82v-44.04Z"/>
        </g>
      </g>
    </g>
  </g>
</svg>