<?xml version="1.0" encoding="UTF-8"?>
<svg id="Laag_2" data-name="Laag 2" xmlns="http://www.w3.org/2000/svg" viewBox="0 0 1325.99 458.17">
  <defs>
    <style>
      .cls-1, .cls-2, .cls-3 {
        stroke-width: 0px;
      }

      .cls-2 {
        fill: #fff;
      }

      .cls-3 {
        fill: #ffd900;
      }
    </style>
  </defs>
  <g id="Laag_1-2" data-name="Laag 1">
    <g>
      <g>
        <rect class="cls-1" width="1061.08" height="243.1"/>
        <g>
          <path class="cls-2" d="m173.75,71.5h21.45v100.1h-20.59l-48.48-64.35v64.35h-21.59v-100.1h20.59l48.62,64.64v-64.64Z"/>
          <path class="cls-2" d="m291.16,171.6l-7.87-19.45h-46.33l-7.87,19.45h-23.31l43.47-100.1h23.31l42.76,100.1h-24.17Zm-46.76-37.61h31.6l-15.73-38.9-15.87,38.9Z"/>
          <path class="cls-2" d="m305.46,71.5h83.66v19.16h-30.6v80.94h-22.6v-80.94h-30.46v-19.16Z"/>
          <path class="cls-2" d="m401.27,71.5h22.59v100.1h-22.59v-100.1Z"/>
          <path class="cls-2" d="m519.96,76.65c8.2,4.48,14.66,10.65,19.38,18.52s7.08,16.61,7.08,26.24-2.36,18.4-7.08,26.31c-4.72,7.91-11.18,14.14-19.38,18.66-8.2,4.53-17.3,6.79-27.31,6.79s-19.12-2.26-27.31-6.79c-8.2-4.53-14.66-10.73-19.38-18.59-4.72-7.87-7.08-16.66-7.08-26.38s2.36-18.38,7.08-26.24c4.72-7.87,11.15-14.04,19.31-18.52,8.15-4.48,17.28-6.72,27.38-6.72s19.11,2.24,27.31,6.72Zm-42.47,17.23c-4.77,2.81-8.53,6.65-11.3,11.51-2.77,4.86-4.15,10.2-4.15,16.02s1.4,11.3,4.22,16.16c2.81,4.86,6.58,8.72,11.3,11.58,4.72,2.86,9.84,4.29,15.37,4.29s10.61-1.4,15.23-4.22c4.62-2.81,8.29-6.67,11.01-11.58,2.72-4.91,4.08-10.32,4.08-16.23s-1.36-11.16-4.08-16.02c-2.72-4.86-6.39-8.7-11.01-11.51-4.63-2.81-9.7-4.22-15.23-4.22s-10.68,1.41-15.44,4.22Z"/>
          <path class="cls-2" d="m630.5,71.5h21.45v100.1h-20.59l-48.48-64.35v64.35h-21.59v-100.1h20.59l48.62,64.64v-64.64Z"/>
          <path class="cls-2" d="m747.9,171.6l-7.87-19.45h-46.33l-7.87,19.45h-23.31l43.47-100.1h23.31l42.76,100.1h-24.17Zm-46.76-37.61h31.6l-15.73-38.9-15.87,38.9Z"/>
          <path class="cls-2" d="m856.44,171.6l-7.87-19.45h-46.33l-7.87,19.45h-23.31l43.47-100.1h23.31l42.76,100.1h-24.17Zm-46.76-37.61h31.6l-15.73-38.9-15.87,38.9Z"/>
          <path class="cls-2" d="m891.04,71.5h22.59v80.37h42.9v19.73h-65.49v-100.1Z"/>
        </g>
      </g>
      <g>
        <rect class="cls-1" x="388.64" y="215.06" width="937.35" height="243.1"/>
        <g>
          <path class="cls-3" d="m580.96,386.81l-7.87-19.45h-46.33l-7.87,19.45h-23.31l43.47-100.1h23.31l42.76,100.1h-24.17Zm-46.76-37.61h31.6l-15.73-38.9-15.87,38.9Z"/>
          <path class="cls-3" d="m639.66,362.43c4.05,4.15,9.46,6.22,16.23,6.22s11.82-2.05,15.73-6.15c3.91-4.1,5.86-9.77,5.86-17.02v-58.77h22.59v58.77c0,8.77-1.79,16.37-5.36,22.81s-8.7,11.39-15.37,14.87c-6.67,3.48-14.54,5.22-23.6,5.22s-16.97-1.74-23.74-5.22c-6.77-3.48-11.97-8.44-15.59-14.87-3.62-6.44-5.43-14.04-5.43-22.81v-58.77h22.59v58.77c0,7.15,2.02,12.8,6.08,16.95Z"/>
          <path class="cls-3" d="m710.52,286.71h83.66v19.16h-30.6v80.94h-22.6v-80.94h-30.46v-19.16Z"/>
          <path class="cls-3" d="m874.83,291.85c8.2,4.48,14.66,10.65,19.38,18.52s7.08,16.61,7.08,26.24-2.36,18.4-7.08,26.31c-4.72,7.91-11.18,14.14-19.38,18.66-8.2,4.53-17.3,6.79-27.31,6.79s-19.12-2.26-27.31-6.79c-8.2-4.53-14.66-10.73-19.38-18.59-4.72-7.87-7.08-16.66-7.08-26.38s2.36-18.38,7.08-26.24c4.72-7.87,11.15-14.04,19.31-18.52,8.15-4.48,17.28-6.72,27.38-6.72s19.11,2.24,27.31,6.72Zm-42.47,17.23c-4.77,2.81-8.53,6.65-11.3,11.51-2.77,4.86-4.15,10.2-4.15,16.02s1.4,11.3,4.22,16.16c2.81,4.86,6.58,8.72,11.3,11.58s9.84,4.29,15.37,4.29,10.61-1.4,15.23-4.22c4.62-2.81,8.29-6.67,11.01-11.58,2.72-4.91,4.08-10.32,4.08-16.23s-1.36-11.16-4.08-16.02c-2.72-4.86-6.39-8.7-11.01-11.51-4.63-2.81-9.7-4.22-15.23-4.22s-10.68,1.41-15.44,4.22Z"/>
          <path class="cls-3" d="m965.71,307.09c-5.77-1.86-10.7-2.79-14.8-2.79s-7.01.72-9.3,2.15c-2.29,1.43-3.43,3.53-3.43,6.29,0,3.53,1.65,6.22,4.93,8.08,3.29,1.86,8.37,3.79,15.23,5.79,6.86,2,12.51,4,16.95,6,4.43,2,8.22,5.01,11.37,9.01,3.15,4,4.72,9.3,4.72,15.87s-1.69,11.89-5.08,16.52c-3.39,4.63-8.03,8.13-13.94,10.51-5.91,2.38-12.63,3.58-20.16,3.58-8.11,0-16.07-1.43-23.88-4.29-7.82-2.86-14.59-6.77-20.31-11.73l9.01-18.45c5.05,4.58,10.87,8.25,17.45,11.01,6.58,2.77,12.58,4.15,18.02,4.15,4.67,0,8.32-.86,10.94-2.58,2.62-1.71,3.93-4.19,3.93-7.44,0-2.58-.88-4.7-2.64-6.36-1.77-1.67-4.01-3.03-6.72-4.08-2.72-1.05-6.46-2.24-11.23-3.58-6.86-1.9-12.47-3.81-16.8-5.72-4.34-1.9-8.08-4.81-11.23-8.72-3.15-3.91-4.72-9.1-4.72-15.59,0-6,1.62-11.27,4.86-15.8,3.24-4.53,7.77-8.01,13.59-10.44,5.82-2.43,12.59-3.65,20.31-3.65,6.86,0,13.63,1,20.31,3,6.67,2,12.58,4.67,17.73,8.01l-8.72,18.73c-5.15-3.15-10.61-5.65-16.37-7.51Z"/>
          <path class="cls-3" d="m1020.91,368.51c2.05,2.1,3.08,4.82,3.08,8.15s-1.03,6.08-3.08,8.22c-2.05,2.15-4.7,3.22-7.94,3.22s-5.77-1.1-7.87-3.29c-2.1-2.19-3.15-4.91-3.15-8.15s1.05-6.05,3.15-8.15c2.1-2.1,4.72-3.15,7.87-3.15s5.88,1.05,7.94,3.15Z"/>
          <path class="cls-3" d="m1110.07,286.71h21.45v100.1h-20.59l-48.48-64.35v64.35h-21.59v-100.1h20.59l48.62,64.64v-64.64Z"/>
          <path class="cls-3" d="m1153.54,286.71h22.59v80.37h42.9v19.73h-65.49v-100.1Z"/>
        </g>
      </g>
    </g>
  </g>
</svg>