<?xml version="1.0" encoding="UTF-8"?>
<svg id="Laag_2" data-name="Laag 2" xmlns="http://www.w3.org/2000/svg" viewBox="0 0 3986.12 421.87">
  <defs>
    <style>
      .cls-1 {
        fill: #005128;
      }

      .cls-2 {
        fill: #00b67a;
      }

      .cls-3 {
        fill: #fff;
      }
    </style>
  </defs>
  <g id="Laag_1-2" data-name="Laag 1">
    <g>
      <path class="cls-2" d="m0,20.51h380.86v380.86H0V20.51Zm412.6,0h380.86v380.86h-380.86V20.51Zm412.6,0h380.86v380.86h-380.86V20.51Zm412.6,0h380.86v380.86h-380.86V20.51Zm412.6,0h380.86v380.86h-380.86V20.51Z"/>
      <path class="cls-3" d="m190.43,277.19l57.92-14.68,24.2,74.58-82.12-59.91Zm133.3-96.41h-101.96l-31.34-96.01-31.34,96.01H57.13l82.52,59.51-31.34,96.01,82.52-59.51,50.78-36.5,82.12-59.51Zm279.3,96.41l57.92-14.68,24.2,74.58-82.12-59.91Zm133.3-96.41h-101.96l-31.34-96.01-31.34,96.01h-101.96l82.52,59.51-31.34,96.01,82.52-59.51,50.78-36.5,82.12-59.51Zm279.3,96.41l57.92-14.68,24.2,74.58-82.12-59.91Zm133.3-96.41h-101.96l-31.34-96.01-31.34,96.01h-101.96l82.52,59.51-31.34,96.01,82.52-59.51,50.78-36.5,82.12-59.51Zm279.3,96.41l57.92-14.68,24.2,74.58-82.12-59.91Zm133.3-96.41h-101.96l-31.34-96.01-31.34,96.01h-101.96l82.52,59.51-31.34,96.01,82.52-59.51,50.78-36.5,82.12-59.51Zm279.3,96.41l57.92-14.68,24.2,74.58-82.12-59.91Zm133.3-96.41h-101.96l-31.34-96.01-31.34,96.01h-101.96l82.52,59.51-31.34,96.01,82.52-59.51,50.78-36.5,82.12-59.51Z"/>
    </g>
    <g>
      <path class="cls-3" d="m2719.37,149.5h173.85v32.36h-68.45v182.44h-37.52v-182.44h-68.16l.29-32.36Zm166.4,59.29h32.08v30.07h.57c1.15-4.3,3.15-8.31,6.01-12.32s6.3-7.73,10.6-10.88c4.01-3.44,8.59-6.01,13.75-8.02,4.87-2,10.02-3.15,15.18-3.15,4.01,0,6.87.29,8.31.29,1.43.29,3.15.57,4.58.57v32.94c-2.29-.57-4.87-.86-7.45-1.15s-4.87-.57-7.45-.57c-5.73,0-11.17,1.15-16.32,3.44s-9.45,5.73-13.46,10.02c-3.72,4.58-6.87,10.02-9.16,16.61-2.29,6.59-3.44,14.32-3.44,22.91v73.89h-34.37l.57-154.66Zm248.6,155.52h-33.8v-21.77h-.57c-4.3,8.02-10.6,14.03-18.9,18.9s-16.9,7.16-25.49,7.16c-20.33,0-35.23-4.87-44.39-15.18-9.16-10.02-13.75-25.49-13.75-45.82v-98.81h34.37v95.37c0,13.75,2.58,23.49,8.02,28.93,5.16,5.73,12.6,8.59,22.05,8.59,7.16,0,13.17-1.15,18.04-3.44s8.88-5.16,11.74-8.88c3.15-3.72,5.16-8.31,6.59-13.46s2-10.88,2-16.9v-90.22h34.37v155.52h-.29Zm58.43-49.83c1.15,10.02,4.87,16.9,11.46,21.19,6.59,4.01,14.61,6.01,23.77,6.01,3.15,0,6.87-.29,10.88-.86s8.02-1.43,11.46-2.86c3.72-1.43,6.59-3.44,8.88-6.3s3.44-6.3,3.15-10.6-1.72-8.02-4.87-10.88-6.87-4.87-11.46-6.87c-4.58-1.72-10.02-3.15-16.04-4.3s-12.03-2.58-18.33-4.01c-6.3-1.43-12.6-3.15-18.62-5.16s-11.17-4.58-16.04-8.31c-4.58-3.44-8.59-7.73-11.17-13.17-2.86-5.44-4.3-11.74-4.3-19.76,0-8.59,2-15.47,6.3-21.19,4.01-5.73,9.45-10.31,15.75-13.75,6.3-3.44,13.46-6.01,21.19-7.45,7.73-1.43,15.18-2,22.05-2,8.02,0,15.75.86,22.91,2.58s14.03,4.3,19.76,8.31c6.01,3.72,10.88,8.88,14.61,14.89,4.01,6.01,6.3,13.46,7.45,22.05h-35.8c-1.72-8.31-5.44-13.75-11.17-16.61-6.01-2.86-12.6-4.3-20.33-4.3-2.29,0-5.44.29-8.59.57-3.44.57-6.3,1.15-9.45,2.29-2.86,1.15-5.44,2.86-7.45,4.87s-3.15,4.87-3.15,8.31c0,4.3,1.43,7.45,4.3,10.02s6.59,4.58,11.46,6.59c4.58,1.72,10.02,3.15,16.04,4.3s12.32,2.58,18.62,4.01,12.32,3.15,18.33,5.16,11.46,4.58,16.04,8.31c4.58,3.44,8.59,7.73,11.46,12.89,2.86,5.16,4.3,11.74,4.3,19.19,0,9.16-2,16.9-6.3,23.49-4.3,6.3-9.74,11.74-16.32,15.75-6.59,4.01-14.32,6.87-22.34,8.88-8.31,1.72-16.32,2.86-24.34,2.86-9.74,0-18.9-1.15-27.21-3.44s-15.75-5.73-21.77-10.02c-6.01-4.58-10.88-10.02-14.32-16.9-3.44-6.59-5.44-14.61-5.73-24.06h34.65v.29h.29Zm113.13-105.68h26.06v-46.97h34.37v46.68h30.93v25.49h-30.93v83.06c0,3.72.29,6.59.57,9.45.29,2.58,1.15,4.87,2,6.59,1.15,1.72,2.86,3.15,4.87,4.01,2.29.86,5.16,1.43,9.16,1.43,2.29,0,4.87,0,7.16-.29s4.87-.57,7.16-1.15v26.64c-3.72.57-7.45.86-11.17,1.15-3.72.57-7.16.57-11.17.57-9.16,0-16.32-.86-21.77-2.58s-9.74-4.3-12.89-7.45c-3.15-3.44-5.16-7.45-6.3-12.32s-1.72-10.88-2-17.18v-91.65h-26.06v-26.06.57Zm115.42,0h32.36v21.19h.57c4.87-9.16,11.46-15.47,20.05-19.48s17.76-6.01,28.07-6.01c12.32,0,22.91,2,32.08,6.59,9.16,4.3,16.61,10.02,22.63,17.76,6.01,7.45,10.6,16.32,13.46,26.35,2.86,10.02,4.58,20.91,4.58,32.08s-1.43,20.62-4.01,30.36c-2.86,9.74-6.87,18.62-12.32,26.06s-12.32,13.46-20.91,18.04-18.33,6.87-29.79,6.87c-4.87,0-10.02-.57-14.89-1.43s-9.74-2.29-14.32-4.3c-4.58-2-8.88-4.58-12.6-7.73-4.01-3.15-7.16-6.87-9.74-10.88h-.57v77.62h-34.37v-213.08h-.29Zm120,77.9c0-6.87-.86-13.75-2.86-20.33-1.72-6.59-4.58-12.32-8.31-17.47-3.72-5.16-8.31-9.16-13.46-12.32-5.44-3.15-11.74-4.58-18.62-4.58-14.32,0-25.2,4.87-32.65,14.89-7.16,10.02-10.88,23.49-10.88,40.1,0,8.02.86,15.18,2.86,21.77s4.58,12.32,8.59,17.18c3.72,4.87,8.31,8.59,13.75,11.46s11.46,4.3,18.62,4.3c8.02,0,14.32-1.72,19.76-4.87,5.44-3.15,9.74-7.45,13.46-12.32,3.44-5.16,6.01-10.88,7.45-17.47,1.43-6.87,2.29-13.46,2.29-20.33Zm60.43-137.19h34.37v32.36h-34.37v-32.36Zm0,59.29h34.37v155.52h-34.37v-155.52Zm65.01-59.29h34.37v214.8h-34.37v-214.8Zm139.19,219.1c-12.32,0-23.49-2-33.22-6.3s-17.76-9.74-24.63-16.9c-6.59-7.16-11.74-16.04-15.18-26.06s-5.44-21.19-5.44-32.94,1.72-22.63,5.44-32.65c3.44-10.02,8.59-18.62,15.18-26.06,6.59-7.16,14.89-12.89,24.63-16.9s20.91-6.3,33.22-6.3,23.49,2,33.22,6.3c9.74,4.01,17.76,9.74,24.63,16.9,6.59,7.16,11.74,16.04,15.18,26.06s5.44,20.91,5.44,32.65-1.72,22.91-5.44,32.94-8.59,18.62-15.18,26.06c-6.59,7.16-14.89,12.89-24.63,16.9-9.74,4.01-20.62,6.3-33.22,6.3Zm0-27.21c7.45,0,14.32-1.72,19.76-4.87,5.73-3.15,10.02-7.45,13.75-12.6s6.3-11.17,8.02-17.47c1.72-6.59,2.58-13.17,2.58-20.05s-.86-13.17-2.58-19.76c-1.72-6.59-4.3-12.32-8.02-17.47s-8.31-9.16-13.75-12.32c-5.73-3.15-12.32-4.87-19.76-4.87s-14.32,1.72-19.76,4.87c-5.73,3.15-10.02,7.45-13.75,12.32-3.72,5.16-6.3,10.88-8.02,17.47-1.72,6.59-2.58,13.17-2.58,19.76s.86,13.46,2.58,20.05c1.72,6.59,4.3,12.32,8.02,17.47s8.31,9.45,13.75,12.6c5.73,3.44,12.32,4.87,19.76,4.87Zm88.78-132.6h26.06v-46.97h34.37v46.68h30.93v25.49h-30.93v83.06c0,3.72.29,6.59.57,9.45.29,2.58,1.15,4.87,2,6.59,1.15,1.72,2.86,3.15,4.87,4.01,2.29.86,5.16,1.43,9.16,1.43,2.29,0,4.87,0,7.16-.29s4.87-.57,7.16-1.15v26.64c-3.72.57-7.45.86-11.17,1.15-3.72.57-7.16.57-11.17.57-9.16,0-16.32-.86-21.77-2.58-5.44-1.72-9.74-4.3-12.89-7.45-3.15-3.44-5.16-7.45-6.3-12.32s-1.72-10.88-2-17.18v-91.65h-26.06v-26.06.57Z"/>
      <path class="cls-2" d="m2679.27,149.5h-157.23L2473.63,0l-48.69,149.5-157.23-.29,127.16,92.51-48.69,149.5,127.16-92.51,127.16,92.51-48.4-149.5,127.16-92.22Z"/>
      <path class="cls-1" d="m2562.99,275.52l-10.88-33.8-78.47,56.99,89.36-23.2Z"/>
    </g>
  </g>
</svg>