<?xml version="1.0" encoding="UTF-8"?>
<svg id="Laag_2" data-name="Laag 2" xmlns="http://www.w3.org/2000/svg" viewBox="0 0 51 24.1">
  <defs>
    <style>
      .cls-1 {
        fill: #005128;
      }

      .cls-2 {
        fill: #00b67a;
      }

      .cls-3 {
        fill: #fff;
      }

      .cls-4 {
        fill: #dcdce6;
      }
    </style>
  </defs>
  <g id="katman_1" data-name="katman 1">
    <g id="trustpilot-logo">
      <path id="Shape" class="cls-3" d="m13.4,4.5h5.2v1h-2v5.4h-1.2v-5.4h-2v-1h0Zm4.9,1.7h1v.9h0c0-.1.1-.2.2-.4s.2-.2.3-.3.3-.2.4-.2c.1-.1.3-.1.5-.1h.3v1h-.4c-.2,0-.3,0-.5.1s-.3.2-.4.3c-.1.1-.2.3-.3.5-.1.2-.1.4-.1.7v2.2h-1v-4.7h0Zm7.4,4.7h-1v-.6h0c-.1.2-.3.4-.6.6-.2.1-.5.2-.8.2-.6,0-1-.1-1.3-.5s-.4-.8-.4-1.4v-2.9h1v2.8c0,.4.1.7.2.9.2.2.4.3.7.3.2,0,.4,0,.5-.1s.3-.2.3-.3c.1-.1.2-.2.2-.4s.1-.3.1-.5v-2.7h1v4.6h.1Zm1.7-1.5c0,.3.1.5.3.6s.4.2.7.2h.3c.1,0,.2,0,.3-.1.1,0,.2-.1.3-.2s.1-.2.1-.3-.1-.2-.1-.3c-.1-.1-.2-.1-.3-.2-.1,0-.3-.1-.5-.1s-.4-.1-.5-.1c-.2,0-.4-.1-.5-.2s-.3-.1-.5-.2c-.1-.1-.3-.2-.3-.4-.1-.2-.1-.4-.1-.6,0-.3.1-.5.2-.6s.3-.3.5-.4.4-.2.6-.2.5-.1.7-.1.5,0,.7.1c.2,0,.4.1.6.2.2.1.3.3.4.4.1.2.2.4.2.7h-1.1c0-.2-.2-.4-.3-.5-.3-.1-.5-.2-.7-.2h-.3c-.1,0-.2,0-.3.1-.1,0-.2.1-.2.1q-.1.1-.1.2c0,.1,0,.2.1.3.1.1.2.1.3.2.1,0,.3.1.5.1s.4.1.6.1.4.1.5.2c.2.1.3.1.5.2s.3.2.3.4c.1.2.1.3.1.6s-.1.5-.2.7c-.1.2-.3.3-.5.5-.1.2-.3.3-.5.3s-.5.1-.7.1c-.3,0-.6,0-.8-.1s-.5-.2-.6-.3c-.2-.1-.3-.3-.4-.5-.2-.2-.3-.4-.3-.7h1Zm3.4-3.2h.8v-1.3h1v1.4h.9v.8h-.9v2.8q0,.1.1.2l.1.1h.7v.7h-.6c-.3,0-.5,0-.6-.1-.2,0-.3-.1-.4-.2-.1-.1-.2-.2-.2-.4,0-.1-.1-.3-.1-.5v-2.7h-.8v-.8h0Zm3.4,0h1v.7h0c.1-.3.3-.5.6-.6s.5-.2.8-.2c.4,0,.7.1,1,.2s.5.3.7.5.3.5.4.8c.1.3.1.6.1,1,0,.3,0,.6-.1.9s-.2.5-.4.8c-.2.2-.4.4-.6.5-.3.1-.5.2-.9.2h-.4c-.1,0-.3-.1-.4-.1-.1-.1-.3-.1-.4-.2-.1-.1-.2-.2-.3-.3h0v2.3h-1v-6.5h-.1Zm3.6,2.4c0-.2,0-.4-.1-.6s-.1-.4-.2-.5-.2-.3-.4-.4-.3-.1-.6-.1c-.4,0-.8.1-1,.4s-.3.7-.3,1.2c0,.2,0,.5.1.6.1.2.1.4.3.5.1.1.2.3.4.3.2.1.3.1.5.1s.4,0,.6-.1c.2-.1.3-.2.4-.4.1-.2.2-.3.2-.5,0-.1.1-.3.1-.5Zm1.8-4.1h1v1h-1v-1Zm0,1.7h1v4.7h-1v-4.7Zm1.9-1.7h1v6.4h-1v-6.4Zm4.1,6.5c-.4,0-.7-.1-1-.2s-.5-.3-.7-.5-.4-.5-.5-.8-.2-.6-.2-1,.1-.7.2-1c.1-.3.3-.6.5-.8s.4-.4.7-.5.6-.2,1-.2.7.1,1,.2.5.3.7.5.4.5.5.8.2.6.2,1-.1.7-.2,1c-.1.3-.3.6-.5.8s-.4.4-.7.5-.6.2-1,.2Zm0-.8c.2,0,.4,0,.6-.1.2-.1.3-.2.4-.4.1-.2.2-.3.2-.5s.1-.4.1-.6,0-.4-.1-.6c0-.2-.1-.4-.2-.5s-.2-.3-.4-.4-.4-.1-.6-.1-.4,0-.6.1c-.2.1-.3.2-.4.4-.1.2-.2.3-.2.5s-.1.4-.1.6,0,.4.1.6c0,.2.1.4.2.5.1.2.2.3.4.4.2,0,.4.1.6.1Zm2.7-4h.8v-1.3h1v1.4h.9v.8h-.9v2.8q0,.1.1.2l.1.1h.7v.7h-.6c-.3,0-.5,0-.6-.1-.2,0-.3-.1-.4-.2-.1-.1-.2-.2-.2-.4,0-.1-.1-.3-.1-.5v-2.7h-.8v-.8h0Z"/>
      <g id="Star">
        <polygon id="Path" class="cls-2" points="12.2 4.5 7.5 4.5 6.1 0 4.6 4.5 0 4.5 3.7 7.2 2.3 11.7 6.1 8.9 9.8 11.7 8.4 7.2 12.2 4.5"/>
        <polygon id="Path-2" data-name="Path" class="cls-1" points="8.7 8.2 8.4 7.2 6.1 8.9 8.7 8.2"/>
      </g>
      <rect id="Rectangle" class="cls-2" y="14.5" width="9.6" height="9.6"/>
      <rect id="Rectangle-2" data-name="Rectangle" class="cls-2" x="10.3" y="14.5" width="9.6" height="9.6"/>
      <rect id="Rectangle-3" data-name="Rectangle" class="cls-2" x="20.7" y="14.5" width="9.6" height="9.6"/>
      <rect id="Rectangle-4" data-name="Rectangle" class="cls-2" x="31" y="14.5" width="9.6" height="9.6"/>
      <rect id="Rectangle-5" data-name="Rectangle" class="cls-4" x="41.4" y="14.5" width="9.6" height="9.6"/>
      <polygon id="Rectangle-6" data-name="Rectangle" class="cls-2" points="41.4 14.5 51 14.5 51 24 41.4 24 41.4 14.5"/>
      <path id="Shape-2" data-name="Shape" class="cls-3" d="m4.7,20.9l1.5-.4.6,1.9-2.1-1.5Zm3.4-2.4h-2.6l-.8-2.4-.8,2.4H1.4l2.1,1.5-.8,2.4,2.1-1.5,1.3-.9,2-1.5h0Z"/>
      <path id="Shape-3" data-name="Shape" class="cls-3" d="m15.1,20.9l1.5-.4.6,1.9-2.1-1.5Zm3.3-2.4h-2.6l-.8-2.4-.8,2.4h-2.6l2.1,1.5-.8,2.4,2.1-1.5,1.3-.9,2.1-1.5h0Z"/>
      <path id="Shape-4" data-name="Shape" class="cls-3" d="m25.5,20.9l1.5-.4.6,1.9-2.1-1.5Zm3.3-2.4h-2.6l-.8-2.4-.8,2.4h-2.6l2.1,1.5-.7,2.4,2.1-1.5,1.3-.9,2-1.5h0Z"/>
      <path id="Shape-5" data-name="Shape" class="cls-3" d="m35.8,20.9l1.5-.4.6,1.9-2.1-1.5Zm3.4-2.4h-2.6l-.8-2.4-.8,2.4h-2.6l2.1,1.5-.8,2.4,2.1-1.5,1.3-.9,2.1-1.5h0Z"/>
      <path id="Shape-6" data-name="Shape" class="cls-3" d="m46.2,20.9l1.5-.4.6,1.9-2.1-1.5Zm3.3-2.4h-2.6l-.8-2.4-.7,2.4h-2.6l2.1,1.5-.8,2.4,2.1-1.5,1.3-.9,2-1.5h0Z"/>
    </g>
  </g>
</svg>